/* XPM */
static char * grsd_xpm[] = {
"100 100 86 1",
" 	c #5E7A3E",
".	c #5C7451",
"+	c #5D7157",
"@	c #33452D",
"#	c #31432A",
"$	c #32442B",
"%	c #31432B",
"&	c #5E7941",
"*	c #414F3C",
"=	c #34452F",
"-	c #5C7446",
";	c #5E7057",
">	c #384833",
",	c #5B6D51",
"'	c #5D6E58",
")	c #364731",
"!	c #455240",
"~	c #505B4C",
"{	c #3E4D39",
"]	c #43513F",
"^	c #445140",
"/	c #545F50",
"(	c #35462F",
"_	c #34452E",
":	c #4E5A4A",
"<	c #5C7346",
"[	c #394833",
"}	c #535E50",
"|	c #515C4E",
"1	c #5E7058",
"2	c #32442C",
"3	c #374732",
"4	c #495645",
"5	c #5D764C",
"6	c #32432B",
"7	c #3B4A36",
"8	c #4F5B4C",
"9	c #34452D",
"0	c #5C6C57",
"a	c #364630",
"b	c #3E4D3A",
"c	c #374731",
"d	c #5E6F58",
"e	c #58684E",
"f	c #5D6F58",
"g	c #33442D",
"h	c #4A5746",
"i	c #566252",
"j	c #394934",
"k	c #3F4E3B",
"l	c #5C704C",
"m	c #505C4D",
"n	c #4C5848",
"o	c #3A4A35",
"p	c #556251",
"q	c #5C6B57",
"r	c #475443",
"s	c #525D4E",
"t	c #455241",
"u	c #485544",
"v	c #495545",
"w	c #384832",
"x	c #465342",
"y	c #4D5949",
"z	c #5B6A57",
"A	c #4B5747",
"B	c #525D4F",
"C	c #5A6E4A",
"D	c #5D7057",
"E	c #5D7746",
"F	c #3A4934",
"G	c #3C4B37",
"H	c #3D4C38",
"I	c #3D4C39",
"J	c #4B5848",
"K	c #42503D",
"L	c #374832",
"M	c #5D6E57",
"N	c #414F3D",
"O	c #4D594A",
"P	c #404F3C",
"Q	c #364730",
"R	c #42503E",
"S	c #5D6D57",
"T	c #3F4D3A",
"U	c #546051",
"                                                                                                    ",
"                                                                                                    ",
"                                                                                                    ",
"                                                                                                    ",
"                                                                                                    ",
"                                                                                                    ",
"                                                                                                    ",
"                                                                                                    ",
"                                                                                                    ",
"                                                                                                    ",
"                                                                                                    ",
"                                                                                                    ",
"                                                                                                    ",
"                                                                       .+                           ",
"                                                                     .@##@+                         ",
"                                                                     $####%&                        ",
"                                                                    *######=                        ",
"                                                                    %#######-       ;>%%$,          ",
"                                                                   '########)      !#####%&         ",
"                                                                   ~########%     {#######]         ",
"                                                                   ^#########    /########(         ",
"                                                                   ]#########    $########_         ",
"                                                                   :########%   <#########[         ",
"                                                            }|     1########2   3#########4         ",
"                                                          5$%%6;    $#######7   %#########+         ",
"                                                          _####$    8#######,   %########9          ",
"                                                         0%#####]    a%###%(   +#########,          ",
"                                                         b######%     c###_     ########{           ",
"                                                         _#######+     def      a%####%7            ",
"                                                         2#######,               g%##%h             ",
"                                                         2#######-                i!}       :jk     ",
"                                                         c#######f                        l$%##2    ",
"                                                         m######%                        i%#####n   ",
"                                                          6#####=                       +%######o   ",
"                                                          p#####q       0o2$@r          3%######o   ",
"                                                           ~%%%s      +(######6;       5########t   ",
"                                                                     u%########%.      v########0   ",
"                                                                   +=##########%_      w#######6    ",
"                                                                  x%#############x     _#######y    ",
"                                                                z2%%#############%.    7######3     ",
"                           :=3z                                b##################a    '%%##%3      ",
"                          >%##%A                              @%###################B    C2%2:       ",
"                         {#####%D                           +6#####################%                ",
"            u7uE        '#######F                           2#######################3               ",
"           g###%G       w#######%                          H%#######################%|              ",
"          x######2&     %########+                         ##########################%              ",
"          @#######2     #########<                        l###########################]             ",
"          6########!   5#########|                        }###########################%             ",
"          2########%    #########e                        l############################|            ",
"          a########%|   %########+                         ############################)            ",
"          v#########)   $#######%     b62|                 j%##########################%            ",
"          E#########%   H#######!    c%%#%/                 I%#########################%            ",
"           >%########   ;######2    :%####%                   d<}|s}}sJKL$############%2            ",
"           E%########    ]####%M    2######l                              1H###########k            ",
"            <%######@     /_6j+    ;%######N                                 {%#######6             ",
"             -%%###%,              s#######3                                  EG%####2+             ",
"       E       *6%9q               4#######(                                     n[cv               ",
"     7##68                         O%######o                                                        ",
"    ~####%F                        ,%######8                                                        ",
"    a######G                        %#####%                                                         ",
"    g######%-           <OC         j#####]                                                         ",
"    (#######@         P#####Qf       $###3                                                          ",
"    R%#######;       Q%#######k       n{B                                                           ",
"    '########A      G##########2S                                                                   ",
"     @#######G     e#############N                                                                  ",
"     0#######{     6#############%2e                                                                ",
"      y######-    T#################w                                                               ",
"       e%%#%7    '###################%,                                                             ",
"         U!,     g####################%n                                                            ",
"                ]#######################O                                                           ",
"               S%#######################%d                                                          ",
"               g#########################a                                                          ",
"              :###########################                                                          ",
"              $###########################1                                                         ",
"             p############################1                                                         ",
"             )############################                                                          ",
"             %##########################%_                                                          ",
"             ###########################%D                                                          ",
"             #################%%666%$gLn                                                            ",
"             $##########%%o<                                                                        ",
"             h#########%r                                                                           ",
"              F######%^                                                                             ",
"               ^%##2x                                                                               ",
"                 .                                                                                  ",
"                                                                                                    ",
"                                                                                                    ",
"                                                                                                    ",
"                                                                                                    ",
"                                                                                                    ",
"                                                                                                    ",
"                                                                                                    ",
"                                                                                                    ",
"                                                                                                    ",
"                                                                                                    ",
"                                                                                                    ",
"                                                                                                    ",
"                                                                                                    ",
"                                                                                                    ",
"                                                                                                    ",
"                                                                                                    "};
