/* XPM */
static char * bone_xpm[] = {
"100 100 7 1",
" 	c #536F49",
".	c #916A3D",
"+	c #E0C8A1",
"@	c #F3E1C4",
"#	c #FFF0D8",
"$	c #FFF4E5",
"%	c #3D5335",
"                                                                                                    ",
"                                                                                                    ",
"                                                                                                    ",
"                                                                                                    ",
"                                                                                                    ",
"                                                                                                    ",
"                                                                                                    ",
"                                                                                                    ",
"                                                                                                    ",
"                                                                                                    ",
"                                                                                                    ",
"                                                                                                    ",
"                                                                                                    ",
"                                                                                                    ",
"                                                                                                    ",
"                                                                                                    ",
"                                                                                                    ",
"                                                                                                    ",
"                                                                                                    ",
"                                                                                                    ",
"                                                                                                    ",
"                                                                                                    ",
"                                                                                                    ",
"                                                                                                    ",
"                                                                                                    ",
"                                                                                                    ",
"                                                                                                    ",
"                                                                                                    ",
"                                                                                                    ",
"     ............                                                                  ............     ",
"     ............                                                                  ............     ",
"   ....++++@@@@....                                                              ....@@@@++++....   ",
"   ....++++@@@@....                                                              ....@@@@++++....   ",
"   ..++++@@@@@@@@....                                                          ....@@@@@@@@++++..   ",
"   ..++++@@@@@@@@....                                                          ....@@@@@@@@++++..   ",
"   ..++++++++@@####....                                                      ....####@@++++++++..   ",
"   ..++++++++@@####....                                                      ....####@@++++++++..   ",
"   ..++++++++++@@##$$....                                                  ....$$##@@++++++++++..   ",
"   ..++++++++++@@##$$....                                                  ....$$##@@++++++++++..   ",
"   ..++++++++@@######$$......................................................$$######@@++++++++..   ",
"   ..++++++++@@######$$......................................................$$######@@++++++++..   ",
"   ..++++@@@@##++######@@++++++++++++++++++++++++++++++++++++++++++++++++++@@######++##@@@@++++..   ",
"   ..++++@@@@##++######@@++++++++++++++++++++++++++++++++++++++++++++++++++@@######++##@@@@++++..   ",
"   ..++++++++##########@@@@@@@@@@@@@@@@@@@@@@@@@@@@@@@@@@@@@@@@@@@@@@@@@@@@@@##########++++++++..   ",
"   ..++++++++##########@@@@@@@@@@@@@@@@@@@@@@@@@@@@@@@@@@@@@@@@@@@@@@@@@@@@@@##########++++++++..   ",
"   ....++++++@@@@@@####################@@@@@@@@@@@@@@@@@@@@@@####################@@@@@@++++++....   ",
"   ....++++++@@@@@@####################@@@@@@@@@@@@@@@@@@@@@@####################@@@@@@++++++....   ",
"     ....++++++++++##############################################################++++++++++....     ",
"     ....++++++++++##############################################################++++++++++....     ",
"       ....@@@@@@@@@@##########################################################@@@@@@@@@@....       ",
"       ....@@@@@@@@@@##########################################################@@@@@@@@@@....       ",
"     ....++++++++++##############################################################++++++++++....     ",
"     ....++++++++++##############################################################++++++++++....     ",
"   ....++++++@@@@@@####################@@@@@@@@@@@@@@@@@@@@@@####################@@@@@@++++++....   ",
"   ....++++++@@@@@@####################@@@@@@@@@@@@@@@@@@@@@@####################@@@@@@++++++....   ",
"   ..++++++++##########@@@@@@@@@@@@@@@@@@@@@@@@@@@@@@@@@@@@@@@@@@@@@@@@@@@@@@##########++++++++..   ",
"   ..++++++++##########@@@@@@@@@@@@@@@@@@@@@@@@@@@@@@@@@@@@@@@@@@@@@@@@@@@@@@##########++++++++..   ",
"   ..++++@@@@##++######@@++++++++++++++++++++++++++++++++++++++++++++++++++@@######++##@@@@++++..   ",
"   ..++++@@@@##++######@@++++++++++++++++++++++++++++++++++++++++++++++++++@@######++##@@@@++++..   ",
"   ..++++++++@@######$$......................................................$$######@@++++++++..   ",
"   ..++++++++@@######$$......................................................$$######@@++++++++..   ",
"   ..++++++++++@@##$$....                                                  ....$$##@@++++++++++..   ",
"   ..++++++++++@@##$$....                                                  ....$$##@@++++++++++..   ",
"   ..++++++++@@####....                                                      ....####@@++++++++..   ",
"   ..++++++++@@####....                                                      ....####@@++++++++..   ",
"   ..++++@@@@@@@@....                                                          ....@@@@@@@@++++..   ",
"   ..++++@@@@@@@@....                                                          ....@@@@@@@@++++..   ",
"   ....++++@@@@....                                                              ....@@@@++++....   ",
"   ....++++@@@@....                                                              ....@@@@++++....   ",
"     ............                                                                  ............     ",
"     ............                                                                  ............     ",
"                                     %%%%%%%%%%%%%%%%%%%%%%%%%%                                     ",
"                                     %%%%%%%%%%%%%%%%%%%%%%%%%%                                     ",
"                             %%%%%%%%%%%%%%%%%%%%%%%%%%%%%%%%%%%%%%%%%%                             ",
"                             %%%%%%%%%%%%%%%%%%%%%%%%%%%%%%%%%%%%%%%%%%                             ",
"                         %%%%%%%%%%%%%%%%%%%%%%%%%%%%%%%%%%%%%%%%%%%%%%%%%%                         ",
"                         %%%%%%%%%%%%%%%%%%%%%%%%%%%%%%%%%%%%%%%%%%%%%%%%%%                         ",
"                       %%%%%%%%%%%%%%%%%%%%%%%%%%%%%%%%%%%%%%%%%%%%%%%%%%%%%%                       ",
"                       %%%%%%%%%%%%%%%%%%%%%%%%%%%%%%%%%%%%%%%%%%%%%%%%%%%%%%                       ",
"                     %%%%%%%%%%%%%%%%%%%%%%%%%%%%%%%%%%%%%%%%%%%%%%%%%%%%%%%%%%                     ",
"                     %%%%%%%%%%%%%%%%%%%%%%%%%%%%%%%%%%%%%%%%%%%%%%%%%%%%%%%%%%                     ",
"                     %%%%%%%%%%%%%%%%%%%%%%%%%%%%%%%%%%%%%%%%%%%%%%%%%%%%%%%%%%                     ",
"                     %%%%%%%%%%%%%%%%%%%%%%%%%%%%%%%%%%%%%%%%%%%%%%%%%%%%%%%%%%                     ",
"                     %%%%%%%%%%%%%%%%%%%%%%%%%%%%%%%%%%%%%%%%%%%%%%%%%%%%%%%%%%                     ",
"                     %%%%%%%%%%%%%%%%%%%%%%%%%%%%%%%%%%%%%%%%%%%%%%%%%%%%%%%%%%                     ",
"                     %%%%%%%%%%%%%%%%%%%%%%%%%%%%%%%%%%%%%%%%%%%%%%%%%%%%%%%%%%                     ",
"                     %%%%%%%%%%%%%%%%%%%%%%%%%%%%%%%%%%%%%%%%%%%%%%%%%%%%%%%%%%                     ",
"                       %%%%%%%%%%%%%%%%%%%%%%%%%%%%%%%%%%%%%%%%%%%%%%%%%%%%%%                       ",
"                       %%%%%%%%%%%%%%%%%%%%%%%%%%%%%%%%%%%%%%%%%%%%%%%%%%%%%%                       ",
"                             %%%%%%%%%%%%%%%%%%%%%%%%%%%%%%%%%%%%%%%%%%                             ",
"                             %%%%%%%%%%%%%%%%%%%%%%%%%%%%%%%%%%%%%%%%%%                             ",
"                                     %%%%%%%%%%%%%%%%%%%%%%%%%%                                     ",
"                                     %%%%%%%%%%%%%%%%%%%%%%%%%%                                     ",
"                                                                                                    ",
"                                                                                                    ",
"                                                                                                    ",
"                                                                                                    ",
"                                                                                                    ",
"                                                                                                    ",
"                                                                                                    "};
