/* XPM */
static char * bone_xpm[] = {
"100 100 31 1",
" 	c #536F49",
".	c #000000",
"+	c #191919",
"@	c #4B4B4B",
"#	c #222222",
"$	c #787878",
"%	c #FFFFFF",
"&	c #A7A7A7",
"*	c #050505",
"=	c #B3B3B3",
"-	c #0F0F0F",
";	c #F4F4F4",
">	c #3C3C3C",
",	c #161616",
"'	c #4C4C4C",
")	c #FAFAFA",
"!	c #111111",
"~	c #969696",
"{	c #CECECE",
"]	c #323232",
"^	c #676767",
"/	c #868686",
"(	c #DFDFDF",
"_	c #909090",
":	c #BBBBBB",
"<	c #8F8F8F",
"[	c #393939",
"}	c #BDBDBD",
"|	c #6C6C6C",
"1	c #636363",
"2	c #777777",
"                                                                                                    ",
"                                                                                                    ",
"                                                                                                    ",
"                                                                                                    ",
"                                                                                                    ",
"                                                                                                    ",
"                                                                                                    ",
"                                                                                                    ",
"                                                                                                    ",
"                                                                                                    ",
"                                                                                                    ",
"                                                                                                    ",
"                                                                                                    ",
"                                                                                                    ",
"                                                                                                    ",
"                                                                                                    ",
"                                                                                                    ",
"                                                                                                    ",
"                                                                                                    ",
"                                                                                                    ",
"                                                                                                    ",
"                                                                                                    ",
"                                                                                                    ",
"                                                                                                    ",
"                                                                                                    ",
"                                                                                                    ",
"                                                                                                    ",
"                                                                                                    ",
"            .....                                                                  .....            ",
"         ...........                                                            ...........         ",
"       ...............                                                        ...............       ",
"      .................                                                      .................      ",
"     .......+@@@#.......                                                    .......#@@@+.......     ",
"    ......$%%%%%%%&*.....                                                  .....*=%%%%%%%$......    ",
"   .....-;%%%%%%%%%%>.....                                                .....>%%%%%%%%%%;-.....   ",
"   ....,%%%%%%%%%%%%%'....                                                ....'%%%%%%%%%%%%%-....   ",
"  .....)%%%%%%%%%%%%%%!....                                              ....!%%%%%%%%%%%%%%).....  ",
"  ....~%%%%%%%%%%%%%%%{..... . ....   . . ...     .   . ....   . . .. . .....{%%%%%%%%%%%%%%%~....  ",
"  ....%%%%%%%%%%%%%%%%%-....................................................-%%%%%%%%%%%%%%%%%....  ",
" ....]%%%%%%%%%%%%%%%%%^....................................................^%%%%%%%%%%%%%%%%%].... ",
" ..../%%%%%%%%%%%%%%%%%(....................................................(%%%%%%%%%%%%%%%%%/.... ",
" ...._%%%%%%%%%%%%%%%%%%:,!!!!!!!!!!!!!!!!!!!!!!!!!!!!!!!!!!!!!!!!!!!!!!!!,:%%%%%%%%%%%%%%%%%%<.... ",
" ...._%%%%%%%%%%%%%%%%%%%%%%%%%%%%%%%%%%%%%%%%%%%%%%%%%%%%%%%%%%%%%%%%%%%%%%%%%%%%%%%%%%%%%%%%<.... ",
" ....[%%%%%%%%%%%%%%%%%%%%%%%%%%%%%%%%%%%%%%%%%%%%%%%%%%%%%%%%%%%%%%%%%%%%%%%%%%%%%%%%%%%%%%%%[.... ",
"  ...*%%%%%%%%%%%%%%%%%%%%%%%%%%%%%%%%%%%%%%%%%%%%%%%%%%%%%%%%%%%%%%%%%%%%%%%%%%%%%%%%%%%%%%%%*...  ",
"  ....}%%%%%%%%%%%%%%%%%%%%%%%%%%%%%%%%%%%%%%%%%%%%%%%%%%%%%%%%%%%%%%%%%%%%%%%%%%%%%%%%%%%%%%}....  ",
"  ....!%%%%%%%%%%%%%%%%%%%%%%%%%%%%%%%%%%%%%%%%%%%%%%%%%%%%%%%%%%%%%%%%%%%%%%%%%%%%%%%%%%%%%%!....  ",
"   ....^%%%%%%%%%%%%%%%%%%%%%%%%%%%%%%%%%%%%%%%%%%%%%%%%%%%%%%%%%%%%%%%%%%%%%%%%%%%%%%%%%%%%^....   ",
"   .....|%%%%%%%%%%%%%%%%%%%%%%%%%%%%%%%%%%%%%%%%%%%%%%%%%%%%%%%%%%%%%%%%%%%%%%%%%%%%%%%%%%|.....   ",
"    .....;%%%%%%%%%%%%%%%%%%%%%%%%%%%%%%%%%%%%%%%%%%%%%%%%%%%%%%%%%%%%%%%%%%%%%%%%%%%%%%%%;.....    ",
"    .....;%%%%%%%%%%%%%%%%%%%%%%%%%%%%%%%%%%%%%%%%%%%%%%%%%%%%%%%%%%%%%%%%%%%%%%%%%%%%%%%%;.....    ",
"   .....|%%%%%%%%%%%%%%%%%%%%%%%%%%%%%%%%%%%%%%%%%%%%%%%%%%%%%%%%%%%%%%%%%%%%%%%%%%%%%%%%%%|.....   ",
"   ....1%%%%%%%%%%%%%%%%%%%%%%%%%%%%%%%%%%%%%%%%%%%%%%%%%%%%%%%%%%%%%%%%%%%%%%%%%%%%%%%%%%%%^....   ",
"  ....!%%%%%%%%%%%%%%%%%%%%%%%%%%%%%%%%%%%%%%%%%%%%%%%%%%%%%%%%%%%%%%%%%%%%%%%%%%%%%%%%%%%%%%!....  ",
"  ....}%%%%%%%%%%%%%%%%%%%%%%%%%%%%%%%%%%%%%%%%%%%%%%%%%%%%%%%%%%%%%%%%%%%%%%%%%%%%%%%%%%%%%%}....  ",
"  ...*%%%%%%%%%%%%%%%%%%%%%%%%%%%%%%%%%%%%%%%%%%%%%%%%%%%%%%%%%%%%%%%%%%%%%%%%%%%%%%%%%%%%%%%%*...  ",
" ....[%%%%%%%%%%%%%%%%%%%%%%%%%%%%%%%%%%%%%%%%%%%%%%%%%%%%%%%%%%%%%%%%%%%%%%%%%%%%%%%%%%%%%%%%[.... ",
" ...._%%%%%%%%%%%%%%%%%%%%%%%%%%%%%%%%%%%%%%%%%%%%%%%%%%%%%%%%%%%%%%%%%%%%%%%%%%%%%%%%%%%%%%%%<.... ",
" ...._%%%%%%%%%%%%%%%%%%:,!!!!!!!!!!!!!!!!!!!!!!!!!!!!!!!!!!!!!!!!!!!!!!!!,:%%%%%%%%%%%%%%%%%%<.... ",
" ..../%%%%%%%%%%%%%%%%%(....................................................(%%%%%%%%%%%%%%%%%/.... ",
" ....]%%%%%%%%%%%%%%%%%^....................................................^%%%%%%%%%%%%%%%%%].... ",
"  ....%%%%%%%%%%%%%%%%%-....................................................-%%%%%%%%%%%%%%%%%....  ",
"  ....~%%%%%%%%%%%%%%%{..... . .. ... . . ...  .... . . ...... . . ..   .....{%%%%%%%%%%%%%%%~....  ",
"  .....)%%%%%%%%%%%%%%!....                                              ....!%%%%%%%%%%%%%%).....  ",
"   ....-%%%%%%%%%%%%%'....                                                ....'%%%%%%%%%%%%%-....   ",
"   .....-;%%%%%%%%%%>.....                                                .....>%%%%%%%%%%;-.....   ",
"    ......2%%%%%%%&*.....                                                  .....*&%%%%%%%2......    ",
"     .......+@@@#.......                                                    .......#@@@+.......     ",
"      .................                                                      .................      ",
"       ...............                                                        ...............       ",
"         ...........                                                            ...........         ",
"            .....                                                                  .....            ",
"                                                                                                    ",
"                                                                                                    ",
"                                                                                                    ",
"                                                                                                    ",
"                                                                                                    ",
"                                                                                                    ",
"                                                                                                    ",
"                                                                                                    ",
"                                                                                                    ",
"                                                                                                    ",
"                                                                                                    ",
"                                                                                                    ",
"                                                                                                    ",
"                                                                                                    ",
"                                                                                                    ",
"                                                                                                    ",
"                                                                                                    ",
"                                                                                                    ",
"                                                                                                    ",
"                                                                                                    ",
"                                                                                                    ",
"                                                                                                    ",
"                                                                                                    ",
"                                                                                                    ",
"                                                                                                    ",
"                                                                                                    ",
"                                                                                                    ",
"                                                                                                    "};
