/* XPM */
static char * dog_xpm[] = {
"100 100 7 1",
" 	c #536F49",
".	c #B96F41",
"+	c #4F3626",
"@	c #000000",
"#	c #FFFFFF",
"$	c #4E4E4E",
"%	c #384C30",
"                                        ......            ......                                    ",
"                                        ......            ......                                    ",
"                                     ......+++            +++......                                 ",
"                                     ......+++            +++......                                 ",
"                                     ......+++            +++......                                 ",
"                                  ......++++++            ++++++......                              ",
"                                  ......++++++            ++++++......                              ",
"                                  ......++++++            ++++++......                              ",
"                               ......+++++++++            +++++++++......                           ",
"                               ......+++++++++            +++++++++......                           ",
"                               ......+++++++++            +++++++++......                           ",
"                               ...++++++++++++            ++++++++++++...                           ",
"                               ...++++++++++++            ++++++++++++...                           ",
"                               ...++++++++++++            ++++++++++++...                           ",
"                            ......++++++++++++            ++++++++++++......                        ",
"                            ......++++++++++++            ++++++++++++......                        ",
"                            ......++++++++++++            ++++++++++++......                        ",
"                         ......+++++++++++++++            +++++++++++++++......                     ",
"                         ......+++++++++++++++            +++++++++++++++......                     ",
"                         ......+++++++++++++++            +++++++++++++++......                     ",
"                         ......+++++++++++++++            +++++++++++++++......                     ",
"                         ......+++++++++++++++            +++++++++++++++......                     ",
"                         ......+++++++++++++++            +++++++++++++++......                     ",
"                         ......++++++++++++++++++      ++++++++++++++++++......                     ",
"                         ......++++++++++++++++++      ++++++++++++++++++......                     ",
"                         ......++++++++++++++++++      ++++++++++++++++++......                     ",
"                      ......+++++++++++++++++++++      +++++++++++++++++++++......                  ",
"                      ......+++++++++++++++++++++      +++++++++++++++++++++......                  ",
"                      ......+++++++++++++++++++++      +++++++++++++++++++++......                  ",
"                      ......+++++++++++++++++++++      +++++++++++++++++++++......                  ",
"                      ......+++++++++++++++++++++      +++++++++++++++++++++......                  ",
"                      ......+++++++++++++++++++++      +++++++++++++++++++++......                  ",
"                      ...+++++++++++++++++++++...      ...+++++++++++++++++++++...                  ",
"                      ...+++++++++++++++++++++...      ...+++++++++++++++++++++...                  ",
"                      ...+++++++++++++++++++++...      ...+++++++++++++++++++++...                  ",
"                      ...+++++++++++++++++++++............+++++++++++++++++++++...                  ",
"                      ...+++++++++++++++++++++............+++++++++++++++++++++...                  ",
"                      ...+++++++++++++++++++++............+++++++++++++++++++++...                  ",
"                      +++++++++++++++++++++++++++......+++++++++++++++++++++++++++                  ",
"                      +++++++++++++++++++++++++++......+++++++++++++++++++++++++++                  ",
"                      +++++++++++++++++++++++++++......+++++++++++++++++++++++++++                  ",
"                      +++++++++......++++++++++++++++++++++++++++++......+++++++++                  ",
"                      +++++++++......++++++++++++++++++++++++++++++......+++++++++                  ",
"                      +++++++++......++++++++++++++++++++++++++++++......+++++++++                  ",
"                      ++++++...............++++++++++++++++++...............++++++                  ",
"                      ++++++...............++++++++++++++++++...............++++++                  ",
"                      ++++++...............++++++++++++++++++...............++++++                  ",
"                      ++++++..................++++++++++++..................++++++                  ",
"                      ++++++..................++++++++++++..................++++++                  ",
"                      ++++++..................++++++++++++..................++++++                  ",
"                   +++++++++.........@@@@@@......++++++......@@@@@@.........+++++++++               ",
"                   +++++++++.........@@@##@......++++++......@##@@@.........+++++++++               ",
"                   +++++++++.........@@@##@......++++++......@##@@@.........+++++++++               ",
"                   +++++++++.........@@@@@@......++++++......@@@@@@.........+++++++++               ",
"                   +++++++++.........@@@@@@......++++++......@@@@@@.........+++++++++               ",
"                   +++++++++.........@@@@@@......++++++......@@@@@@.........+++++++++               ",
"                   +++++++++.........@@@@@@......++++++......@@@@@@.........+++++++++               ",
"                   +++++++++.........@@@@@@......++++++......@@@@@@.........+++++++++               ",
"                   +++++++++.........@@@@@@......++++++......@@@@@@.........+++++++++               ",
"                   ++++++++++++...............++++++++++++...............++++++++++++               ",
"                   ++++++++++++...............++++++++++++...............++++++++++++               ",
"                   ++++++++++++...............++++++++++++...............++++++++++++               ",
"                   ...........................++++++++++++...........................               ",
"                   ...........................++++++++++++...........................               ",
"                   ...........................++++++++++++...........................               ",
"                ...........................@@@@@@@@@@@@@@@@@@...........................            ",
"                ...........................@@@@$$$$$$$$$@@@@@...........................            ",
"                ...........................@@@@@$$$$$$$@@@@@@...........................            ",
"             ...........................++++++@@@@@@@@@@@@++++++...........................         ",
"             ...........................++++++@@@@@@@@@@@@++++++...........................         ",
"             ...........................++++++@@@@@@@@@@@@++++++...........................         ",
"             ...........................+++++++++@@@@@@+++++++++...........................         ",
"             ...........................+++++++++@@@@@@+++++++++...........................         ",
"             ...........................+++++++++@@@@@@+++++++++...........................         ",
"                   ........................++++++++++++++++++........................               ",
"                   ........................++++++++++++++++++........................               ",
"                   ........................++++++++++++++++++........................               ",
"                         .....................++++++++++++.....................                     ",
"                         .....................++++++++++++.....................                     ",
"                         .....................++++++++++++.....................                     ",
"                            .....................++++++.....................                        ",
"                            .....................++++++.....................                        ",
"                            .....................++++++.....................                        ",
"                                  ....................................                              ",
"                                  ....................................                              ",
"                                  ....................................                              ",
"                                                 ......                                             ",
"                                                 ......                                             ",
"                                                 ......                                             ",
"                                                                                                    ",
"                                                                                                    ",
"                                                                                                    ",
"                                                                                                    ",
"                               %%%%%%%%%%%%%%%%%%%%%%%%%%%%%%%%%%%%%%%%%%                           ",
"                              %%%%%%%%%%%%%%%%%%%%%%%%%%%%%%%%%%%%%%%%%%%%                          ",
"                              %%%%%%%%%%%%%%%%%%%%%%%%%%%%%%%%%%%%%%%%%%%%                          ",
"                              %%%%%%%%%%%%%%%%%%%%%%%%%%%%%%%%%%%%%%%%%%%%                          ",
"                         %%%%%%%%%%%%%%%%%%%%%%%%%%%%%%%%%%%%%%%%%%%%%%%%%%%%%%                     ",
"                         %%%%%%%%%%%%%%%%%%%%%%%%%%%%%%%%%%%%%%%%%%%%%%%%%%%%%%                     ",
"                         %%%%%%%%%%%%%%%%%%%%%%%%%%%%%%%%%%%%%%%%%%%%%%%%%%%%%%                     "};
