/* XPM */
static char * shed_xpm[] = {
"100 100 10 1",
" 	c #536F49",
".	c #A2522E",
"+	c #512917",
"@	c #D7AC74",
"#	c #C29257",
"$	c #FFE4C4",
"%	c #9B5A35",
"&	c #70320C",
"*	c #8B461B",
"=	c #3E5436",
"                                                                                                    ",
"                                                                                                    ",
"                                                                                                    ",
"                                                                                                    ",
"                                                                                                    ",
"                                                                                                    ",
"                                                                                                    ",
"                                                                                                    ",
"                                                                                                    ",
"                                       ......................                                       ",
"                                       ......................                                       ",
"                                     ....++++++++++++++++++++++                                     ",
"                                     ....++++++++++++++++++++++                                     ",
"                                   ....++++++++++++++++++++++++++                                   ",
"                                   ....++++++++++++++++++++++++++                                   ",
"                                 ....++++++++++++++++++++++++++++++                                 ",
"                                 ....++++++++++++++++++++++++++++++                                 ",
"                               ....++++++++++++++++++++++++++++++++++                               ",
"                               ....++++++++++++++++++++++++++++++++++                               ",
"                             ....++++++++++@@@@#@@@@@@@@@++++++++++++++                             ",
"                             ....++++++++++@@@##@@@#@@##@++++++++++++++                             ",
"                           ....++++++++++@@@@@#@@@##@#@#@@@++++++++++++++                           ",
"                           ....++++++++++@@@@@#@@@#@@@@#@@@++++++++++++++                           ",
"                         ....++++++++++@#@@@@@#@@@#@##@#@@#@@++++++++++++++                         ",
"                         ....++++++++++@#@@@@@#@@@#@#@##@@#@@++++++++++++++                         ",
"                       ....++++++++++@@@#@@@@@#@@@#@@@#@@@#@@@@++++++++++++++                       ",
"                       ....++++++++++@@@#@@@@@#@@@##@##@@@#@@@@++++++++++++++                       ",
"                     ....++++++++++@@@@#@@@@@@#@@@@###@@@@#@@@@@@++++++++++++++                     ",
"                     ....++++++++++@@@@#@@@@@@#@@@@@@@#@@@#@@@@@@++++++++++++++                     ",
"                   ....++++++++++##@@@##@@@#@@#@@#@@@@##@@@#@@@@@##++++++++++++++                   ",
"                   ....++++++++++#@@@@#@@@@#@@#@@@#@@@@#@@@#@@@@@#@++++++++++++++                   ",
"                 ....++++++++++@@#@@@@#@@@@#@@#@@@#@@@@#@@@#@@@@@#@@@++++++++++++++                 ",
"                 ....++++++++++@@#@@@@#@@@#@@@#@@@#@@@@#@@@#@@@@@#@@@++++++++++++++                 ",
"               ....++++++++++@@@@#@@@@#@@@#@@@#@@@@@@@@#@@@#@@@@@#@@@@@++++++++++++++               ",
"               ....++++++++++@@@@#@@@@##@@@#@@#@@@@##@@#@@@#@@@@@#@@@@@++++++++++++++               ",
"             ....++++++++++#@@@#@@@@@@@$$$$$$$$$$$$$$$$$$$$$$@@@@#@@@@@#@++++++++++++++             ",
"             ....++++++++++#@@##@@@@@@@$%$$$$$$$$$$$$$%$$$$%$@@@@#@@@@@#@++++++++++++++             ",
"           ....++++++++++#@#@@#@@###@@@$%$%%%%$$$$$%$$%%%%$%$@@@@#@@@@@#@@@++++++++++++++           ",
"           ....++++++++++#@##@#@#@@##@@$%%%$$%%%$%$%$$%%%%$%$@@@@#@@@@@#@@@++++++++++++++           ",
"           ..++++++++++@@#@@#@#@#@#@#@@$$%%$$$$$$$$%%$$$$$$$%@@@##@@@@@#@@@@@++++++++++++           ",
"           ..++++++++++@@#@@#@#@###@#@@$$$$$$$$$$$$$$$$$$$%$$@@@#@@@@@@#@@@@@++++++++++++           ",
"           ++++++++++@@@@#@@#@#@##@@#@@@#@@@@#@@@@@#@@@@@@@#@@@@#@@@@@@#@@@@@#@++++++++++           ",
"           ++++++++++@@@@#@@#@#@##@@#@@@#@@@@#@@@@@#@@#@@@@#@@@@#@@@@@@#@@@@@#@++++++++++           ",
"           ++++++++#@@@@##@@#@#@@@@##@@@#@@@@#@@@@@#@@#@@@@#@@@@#@@@@@@#@@@@@#@@@++++++++           ",
"           ++++++++#@@@@#@@@#@#@@@@#@@@@#@@@@#@@@@##@@#@@@@#@@@@#@@@@@@#@@@@@#@@@++++++++           ",
"                 @@#@@@@#@@@#@##@@##@@@@#@@@@#@@@@#@@@#@@@@#@@@@#@@@@@@@@@@@@#@@@@#                 ",
"                 @@#@@@@#@@@#@@####@@@@#@@@@@#@@@@#@@@#@@@@#@@@@#@@##@@@@@@@@#@@@@#                 ",
"                 @@#@@@@#@@@#@@@##@@@@@#@@@@@#@@@@#@@@#@@@@#@@@@#@@#@@@##@@@@#@@@@#                 ",
"                 @@#@@@@#@@@#@@@@@@@@@@#@@@@@#@@@@#@@@#@@@@##@@@#@@#@@#@@#@@@#@@@@#                 ",
"                 @@#@@@@#@@@#@@@@@#@@@@#@@@@@&&&&&&&&&&@@@@@#@@@#@@#@@#@@#@@@#@@@@#                 ",
"                 @@#@@@@#@@@#@@@@@#@@@@#@@@@@&&&&&&&&&&@@@@@#@@@#@@#@@#@@#@@@#@@@@#                 ",
"                 @@#@@@@#@@@#@@@@@#@@@@#@&&&&&&&&&&&&&&&&&&@#@@@#@@#@@#@@##@@#@@@@#                 ",
"                 @@#@@@@#@@@#@@@@@#@@@@#@&&&&&&&&&&&&&&&&&&@#@@@#@@##@##@@#@@#@@@@#                 ",
"                 @@#@@@@#@@@#@@@@@#@@&&&&&&&&&&&&&&&&&&&&&&&&&&@#@@@#@@#@@#@@#@@@@#                 ",
"                 @@#@@@##@@@#@@@@@#@@&&&&&&&&&&&&&&&&&&&&&&&&&&@#@@@#@@@@@#@@@@@@@#                 ",
"                 @#@@@@#@@@@#@@@@@#&&&&&&&&&&&&&&&&&&&&&&&&&&&&&&@@@##@@@@#@@@#@@@#                 ",
"                 @#@@@@#@@@@#@@@@@#&&&&&&&&&&&&&&&&&&&&&&&&&&&&&&@@@@#@@@@#@@@#@@@#                 ",
"                 @#@@@@#@@@@#@@@@&&&&&&&&&&&&&&&&&&&&&&&&&&&&&&&&&&@@##@@@#@@@#@@@#                 ",
"                 @#@@@@#@@@@#@@@@&&&&&&&&&&&&&&&&&&&&&&&&&&&&&&&&&&@@@#@@#@@@@#@@@#                 ",
"                 @#@@@@#@@@@#@@@@&&&&&&&&&&&&&&&&&&&&&&&&&&&&&&&&&&@@@##@#@@@@#@@@#                 ",
"                 @#@@@@#@@@@#@@@@&&&&&&&&&&&&&&&&&&&&&&&&&&&&&&&&&&@@@@###@@@##@@@#                 ",
"                 @#@@@@#@@@@#@@@@&&&&&&&&&&&&&&&&&&&&&&&&&&&&&&&&&&@@@@@#@@@@#@@@@#                 ",
"                 @#@@@@#@@@@#@@@@&&&&&&&&&&&&&&&&&&&&&&&&&&&&&&&&&&@@@@@@@@@@#@@@@#                 ",
"                 @#@@@@#@@@@#@@&&&&&&&&&&&&&&&&&&&&&&&&&&&&&&&&&&&&&&@@@@@@@@#@@@@#                 ",
"                 @#@@@@#@@@@#@@&&&&&&&&&&&&&&&&&&&&&&&&&&&&&&&&&&&&&&@@@@@@@@#@@@@#                 ",
"                 @#@@@@#@@@@#@@&&&&&&&&&&&&&&&&&&&&&&&&&&&&&&&&&&&&&&@@@@@@@@#@@@@#                 ",
"                 @#@@@@#@@@@#@@&&&&&&&&&&&&&&&&&&&&&&&&&&&&&&&&&&&&&&@@@#@@@@#@@@@#                 ",
"                 @#@@@@#@@@@#@@&&&&&&&&&&&&&&&&&&&&&&&&&&&&&&&&&&&&&&@@@#@@@@#@@@@#                 ",
"                 @#@@@@#@@@@#@@&&&&&&&&&&&&&&&&&&&&&&&&&&&&&&&&&&&&&&@@@#@@@@#@@@@#                 ",
"                 @#@@#@@@@@@#@@&&&&&&&&&&&&&&&&&&&&&&&&&&&&&&&&&&&&&&@@@#@@@@#@@@##                 ",
"                 @#@@#@@@@@@#@@&&&&&&&&&&&&&&&&&&&&&&&&&&&&&&&&&&&&&&@@@#@@@@#@@@#@                 ",
"                 @#@##@@@@@@#&&&&&&&&&&&&&&&&&&&&&&&&&&&&&&&&&&&&&&&&&&@#@@@@#@@@#@                 ",
"                 @#@#@@@@@@@#&&&&&&&&&&&&&&&&&&&&&&&&&&&&&&&&&&&&&&&&&&@#@@@@#@@@#@                 ",
"                 @#@#@@@###@#&&&&&&******************************&&&&&&@#@@@@#@@@#@                 ",
"                 @#@#@@@#@#@#&&&&&&******************************&&&&&&@##@@@#@@@#@                 ",
"                 @#@#@@#@@#@#&&**************************************&&@@#@@@#@@@#@                 ",
"                 @#@#@@#@@#@#&&**************************************&&@@#@@@#@@@#@                 ",
"                 @#@#@@#@@#@#******************************************@@#@@@#@@@#@                 ",
"                 @#@#@@@@##@#******************************************@@#@@@#@@@#@                 ",
"             ====@#@@#@@@#@@#******************************************@@#@@@##@@#@====             ",
"             ====@#@@#@@@#@@#******************************************@@#@@@@#@@#@====             ",
"           ======@#@@#@@@#@@#******************************************@@##@@@#@@#@======           ",
"           ======@#@@##@##@@#******************************************@@@#@@@#@@#@======           ",
"         ========@#@@@###@@@@******************************************@@@#@@@#@@##========         ",
"         ========@#@@@@@@@@@@******************************************@@@#@@##@@@#========         ",
"         ==========@@@@@@#@@@******************************************@@@#@@#@@@==========         ",
"         ==========#@@@@@#@@@******************************************@@@#@@#@@@==========         ",
"         ==================================================================================         ",
"         ==================================================================================         ",
"           ==============================================================================           ",
"           ==============================================================================           ",
"                 ==================================================================                 ",
"                 ==================================================================                 ",
"                                                                                                    ",
"                                                                                                    ",
"                                                                                                    ",
"                                                                                                    ",
"                                                                                                    ",
"                                                                                                    ",
"                                                                                                    "};
