/* XPM */
static char * bone_xpm[] = {
"75 75 77 1",
" 	c #5E7A3E",
".	c #607A3E",
"+	c #6A773E",
"@	c #68783E",
"#	c #66783E",
"$	c #916A3D",
"%	c #8A6D3D",
"&	c #846F3D",
"*	c #8C6C3D",
"=	c #CCB28C",
"-	c #D6BD96",
";	c #D5BB95",
">	c #E4D0B1",
",	c #E7D3B6",
"'	c #E5D2B5",
")	c #A2825E",
"!	c #906B3D",
"~	c #946F43",
"{	c #A3825A",
"]	c #D8BF99",
"^	c #E1C9A2",
"/	c #E4CDA8",
"(	c #F1DEC0",
"_	c #F3E1C4",
":	c #B69B7B",
"<	c #70753E",
"[	c #E0C8A1",
"}	c #A18058",
"|	c #E3CCA7",
"1	c #E6D0AC",
"2	c #FBECD2",
"3	c #FBEBD2",
"4	c #F0DFC7",
"5	c #A58665",
"6	c #E3CBA6",
"7	c #F0DDBE",
"8	c #FBEBD1",
"9	c #FDEED6",
"0	c #FFF0D8",
"a	c #BBA389",
"b	c #A58769",
"c	c #F5E4C8",
"d	c #FFF3E3",
"e	c #F0E3D3",
"f	c #FFF1DA",
"g	c #FCEED9",
"h	c #E6D1AD",
"i	c #FAE9CF",
"j	c #B9A085",
"k	c #A58662",
"l	c #E6D0AD",
"m	c #E8D3B1",
"n	c #F5E4C7",
"o	c #F2E0C3",
"p	c #F0DDBF",
"q	c #9E7C53",
"r	c #DEC69F",
"s	c #E5CFAB",
"t	c #FDEDD5",
"u	c #FDEED5",
"v	c #FFF0D7",
"w	c #F7E6CA",
"x	c #F3E1C5",
"y	c #AE8F68",
"z	c #E1CAA5",
"A	c #F9E9CE",
"B	c #5B763D",
"C	c #445C37",
"D	c #445B37",
"E	c #5D793E",
"F	c #59743C",
"G	c #5A753D",
"H	c #56703B",
"I	c #3D5335",
"J	c #425936",
"K	c #3E5535",
"L	c #496138",
"                                                                           ",
"                                                                           ",
"                                                                           ",
"                                                                           ",
"                                                                           ",
"                                                                           ",
"                                                                           ",
"                                                                           ",
"                                                                           ",
"                                                                           ",
"                                                                           ",
"                                                                           ",
"                                                                           ",
"                                                                           ",
"                                                                           ",
"                                                                           ",
"                                                                           ",
"                                                                           ",
"                                                                           ",
"                                                                           ",
"                                                                           ",
"   .+@@+@@+@#                                                 #@+@@+@@+.   ",
"   +$$$$$$$$%                                                 %$$$$$$$$+   ",
"  &*$=-;>,')!%#                                             #%!)',>;-=$*&  ",
"  %~{]^/(__:)$<#                                           #<$):__(/^]{~%  ",
"  %{[[/_____'$$%                                           %$$'_____/[[{%  ",
"  %}[[^/|1_2345!%#                                       #%!5432_1|/^[[}%  ",
"  %}[[[[[67890ab$<#                                     #<$ba09876[[[[[}%  ",
"  %{[[[[[[[7c0de$$%                                     %$$ed0c7[[[[[[[{%  ",
"  %}[[[[[67890fgeb!%%%%%%%%%%%%%%%%%%%%%%%%%%%%%%%%%%%%%!begf09876[[[[[}%  ",
"  %}[[^/|hci300fdjk{}}{}}{}}{}}{}}{}}{}}{}}{}}{}}{}}{}}{kjdf003ich|/^[[}%  ",
"  %{[[/__c0ll0000c7[[[[[[[[[[[[[[[[[[[[[[[[[[[[[[[[[[[[[7c0000ll0c__/[[{%  ",
"  %}[[^/|m0330000no7pp7pp7pp7pp7pp7pp7pp7pp7pp7pp7pp7pp7on0000330m|/^[[}%  ",
"  %q;r[[[stuutv00wncnncnncnncx_______________xcnncnncnncnw00vtuuts[[[r;q%  ",
"  %$$;[[[/____t00000000000000c_______________c00000000000000t____/[[[;$$%  ",
"  #<$qy[[^/||/8000000000000009utuutuutuutuutu9000000000000008/||/^[[yq$<#  ",
"   #%!q;z|/||/A900000000000000000000000000000000000000000009A/||/|z;q!%#   ",
"     %$$'______c0000000000000000000000000000000000000000000c______'$$%     ",
"   #%!q;z|/||/A900000000000000000000000000000000000000000009A/||/|z;q!%#   ",
"  #<$qy[[^/||/8000000000000009utuutuutuutuutu9000000000000008/||/^[[yq$<#  ",
"  %$$;[[[/____t00000000000000c_______________c00000000000000t____/[[[;$$%  ",
"  %q;r[[[stuutv00wncnncnncnncx_______________xcnncnncnncnw00vtuuts[[[r;q%  ",
"  %}[[^/|m0330000no7pp7pp7pp7pp7pp7pp7pp7pp7pp7pp7pp7pp7on0000330m|/^[[}%  ",
"  %{[[/__c0ll0000c7[[[[[[[[[[[[[[[[[[[[[[[[[[[[[[[[[[[[[7c0000ll0c__/[[{%  ",
"  %}[[^/|hci300fdjk{}}{}}{}}{}}{}}{}}{}}{}}{}}{}}{}}{}}{kjdf003ich|/^[[}%  ",
"  %}[[[[[67890fgeb!%%%%%%%%%%%%%%%%%%%%%%%%%%%%%%%%%%%%%!begf09876[[[[[}%  ",
"  %{[[[[[[[7c0de$$%                                     %$$ed0c7[[[[[[[{%  ",
"  %}[[[[[67890ab$<#                                     #<$ba09876[[[[[}%  ",
"  %}[[^/|1_2345!%#                                       #%!5432_1|/^[[}%  ",
"  %{[[/_____'$$%                                           %$$'_____/[[{%  ",
"  %~{]^/(__:)$<#                                           #<$):__(/^]{~%  ",
"  &*$=-;>,')!%#                                             #%!)',>;-=$*&  ",
"   +$$$$$$$$%                                                 %$$$$$$$$+   ",
"   .+@@+@@+@#              BCDDCDDCDDCDDCDDCDDCB              #@+@@+@@+.   ",
"                     EFGGFGHIIIIIIIIIIIIIIIIIIIHGFGGFE                     ",
"                     FIIIIIIIIIIIIIIIIIIIIIIIIIIIIIIIF                     ",
"                  BCDJIIIIIIIIIIIIIIIIIIIIIIIIIIIIIIIJDCB                  ",
"                 BHIIIIIIIIIIIIIIIIIIIIIIIIIIIIIIIIIIIIIHB                 ",
"                 CIIIIIIIIIIIIIIIIIIIIIIIIIIIIIIIIIIIIIIIC                 ",
"               BCKIIIIIIIIIIIIIIIIIIIIIIIIIIIIIIIIIIIIIIIKCB               ",
"               GIIIIIIIIIIIIIIIIIIIIIIIIIIIIIIIIIIIIIIIIIIIG               ",
"               FIIIIIIIIIIIIIIIIIIIIIIIIIIIIIIIIIIIIIIIIIIIF               ",
"               GIIIIIIIIIIIIIIIIIIIIIIIIIIIIIIIIIIIIIIIIIIIG               ",
"               GIIIIIIIIIIIIIIIIIIIIIIIIIIIIIIIIIIIIIIIIIIIG               ",
"               FIIIIIIIIIIIIIIIIIIIIIIIIIIIIIIIIIIIIIIIIIIIF               ",
"               EFJIIIIIIIIIIIIIIIIIIIIIIIIIIIIIIIIIIIIIIIJFE               ",
"                 LDCDJIIIIIIIIIIIIIIIIIIIIIIIIIIIIIIIJDCDL                 ",
"                     FIIIIIIIIIIIIIIIIIIIIIIIIIIIIIIIF                     ",
"                     EFGGFGHIIIIIIIIIIIIIIIIIIIHGFGGFE                     ",
"                           BCDDCDDCDDCDDCDDCDDCB                           ",
"                                                                           ",
"                                                                           ",
"                                                                           ",
"                                                                           ",
"                                                                           "};
