/* XPM */
static char * dog_xpm[] = {
"75 75 107 2",
"  	c #5E7A3E",
". 	c #627A3E",
"+ 	c #B76F41",
"@ 	c #B96F41",
"# 	c #926F45",
"$ 	c #536F49",
"% 	c #6B793E",
"& 	c #957540",
"* 	c #B86F41",
"= 	c #9A5D38",
"- 	c #915835",
"; 	c #776440",
"> 	c #73783E",
", 	c #6A432C",
"' 	c #4F3626",
") 	c #51583A",
"! 	c #82773F",
"~ 	c #AD683D",
"{ 	c #AC673D",
"] 	c #65412B",
"^ 	c #B76E41",
"/ 	c #533827",
"( 	c #B56D40",
"_ 	c #543827",
": 	c #AD7140",
"< 	c #AE7141",
"[ 	c #607A3E",
"} 	c #947540",
"| 	c #B37041",
"1 	c #637A3E",
"2 	c #75783F",
"3 	c #76783F",
"4 	c #B06A3E",
"5 	c #AD683E",
"6 	c #875333",
"7 	c #6D452C",
"8 	c #4F3E2A",
"9 	c #50432E",
"0 	c #504D33",
"a 	c #7D773F",
"b 	c #9D7440",
"c 	c #5F3E29",
"d 	c #50452F",
"e 	c #B76E40",
"f 	c #513726",
"g 	c #55452E",
"h 	c #AC6E42",
"i 	c #AC6F43",
"j 	c #AD6F42",
"k 	c #7B6B3A",
"l 	c #76492E",
"m 	c #576034",
"n 	c #586636",
"o 	c #534E2D",
"p 	c #B16A3E",
"q 	c #87502D",
"r 	c #A6643C",
"s 	c #52472B",
"t 	c #AB663B",
"u 	c #000000",
"v 	c #2E2E2E",
"w 	c #E9E9E9",
"x 	c #A9A9A9",
"y 	c #52482B",
"z 	c #A9653B",
"A 	c #B66D40",
"B 	c #886037",
"C 	c #B36B3F",
"D 	c #74783F",
"E 	c #B17041",
"F 	c #AE683D",
"G 	c #824F2F",
"H 	c #483122",
"I 	c #617A3E",
"J 	c #532F19",
"K 	c #313131",
"L 	c #373737",
"M 	c #030303",
"N 	c #66793E",
"O 	c #512E18",
"P 	c #070302",
"Q 	c #030101",
"R 	c #1C1C1C",
"S 	c #4C4C4C",
"T 	c #4D4D4D",
"U 	c #2A2A2A",
"V 	c #593B28",
"W 	c #4E3526",
"X 	c #4E3525",
"Y 	c #382519",
"Z 	c #070707",
"` 	c #060606",
" .	c #4B3324",
"..	c #422D1F",
"+.	c #A47240",
"@.	c #7C4D30",
"#.	c #AB673D",
"$.	c #6F793E",
"%.	c #5A753C",
"&.	c #59743C",
"*.	c #59733C",
"=.	c #56713B",
"-.	c #3D5131",
";.	c #384C30",
">.	c #4E6637",
",.	c #5D793E",
"'.	c #4A6236",
"                                                          . + @ @ @ # $ $ $ $ $ $ $ $ # @ @ @ + .                                                     ",
"                                                      % & & * @ = - ; $ $ $ $ $ $ $ $ ; - = @ * & & %                                                 ",
"                                                      > @ @ @ @ , ' ) $ $ $ $ $ $ $ $ ) ' , @ @ @ @ >                                                 ",
"                                                  % > ! @ @ ~ { ] ' ) $ $ $ $ $ $ $ $ ) ' ] { ~ @ @ ! > %                                             ",
"                                                  & @ @ @ ^ / ' ' ' ) $ $ $ $ $ $ $ $ ) ' ' ' / ^ @ @ @ &                                             ",
"                                              . . & @ @ ^ ( _ ' ' ' ) $ $ $ $ $ $ $ $ ) ' ' ' _ ( ^ @ @ & . .                                         ",
"                                              : + * @ ~ / _ ' ' ' ' ) $ $ $ $ $ $ $ $ ) ' ' ' ' _ / ~ @ * + :                                         ",
"                                              : @ @ @ { ' ' ' ' ' ' ) $ $ $ $ $ $ $ $ ) ' ' ' ' ' ' { @ @ @ :                                         ",
"                                              < @ = , ] ' ' ' ' ' ' ) $ $ $ $ $ $ $ $ ) ' ' ' ' ' ' ] , = @ <                                         ",
"                                              < @ - ' ' ' ' ' ' ' ' ) $ $ $ $ $ $ $ $ ) ' ' ' ' ' ' ' ' - @ <                                         ",
"                                        [ } & | @ - ' ' ' ' ' ' ' ' ) $ $ $ $ $ $ $ $ ) ' ' ' ' ' ' ' ' - @ | & } [                                   ",
"                                        . + @ @ @ - ' ' ' ' ' ' ' ' ) $ $ $ $ $ $ $ $ ) ' ' ' ' ' ' ' ' - @ @ @ + .                                   ",
"                                    1 2 3 + @ 4 5 6 ' ' ' ' ' ' ' ' ) $ $ $ $ $ $ $ $ ) ' ' ' ' ' ' ' ' 6 5 4 @ + 3 2 1                               ",
"                                    2 @ @ @ @ 7 ' ' ' ' ' ' ' ' ' ' ) $ $ $ $ $ $ $ $ ) ' ' ' ' ' ' ' ' ' ' 7 @ @ @ @ 2                               ",
"                                    > @ @ @ @ , ' ' ' ' ' ' ' ' ' ' ) $ $ $ $ $ $ $ $ ) ' ' ' ' ' ' ' ' ' ' , @ @ @ @ >                               ",
"                                    > @ @ @ @ , ' ' ' ' ' ' ' ' ' ' ) $ $ $ $ $ $ $ $ ) ' ' ' ' ' ' ' ' ' ' , @ @ @ @ >                               ",
"                                    2 @ @ @ @ 7 ' ' ' ' ' ' ' ' ' ' ) $ $ $ $ $ $ $ $ ) ' ' ' ' ' ' ' ' ' ' 7 @ @ @ @ 2                               ",
"                                    > @ @ @ @ , ' ' ' ' ' ' ' ' ' ' 8 9 0 $ $ $ $ 0 9 8 ' ' ' ' ' ' ' ' ' ' , @ @ @ @ >                               ",
"                                    > @ @ @ @ , ' ' ' ' ' ' ' ' ' ' ' ' 9 $ $ $ $ 9 ' ' ' ' ' ' ' ' ' ' ' ' , @ @ @ @ >                               ",
"                                a & b @ * - - c ' ' ' ' ' ' ' ' ' ' ' ' d $ $ $ $ d ' ' ' ' ' ' ' ' ' ' ' ' c - - * @ b & a                           ",
"                                & @ @ @ e _ ' ' ' ' ' ' ' ' ' ' ' ' ' ' 9 $ $ $ $ 9 ' ' ' ' ' ' ' ' ' ' ' ' ' ' _ e @ @ @ &                           ",
"                                & @ @ @ e _ ' ' ' ' ' ' ' ' ' ' ' ' ' ' 9 $ $ $ $ 9 ' ' ' ' ' ' ' ' ' ' ' ' ' ' _ e @ @ @ &                           ",
"                                & @ @ @ ^ / ' ' ' ' ' ' ' ' ' ' ' ' ' ' d $ $ $ $ d ' ' ' ' ' ' ' ' ' ' ' ' ' ' / ^ @ @ @ &                           ",
"                                & @ @ ^ ( _ ' ' ' ' ' ' ' ' ' ' ' ' f _ g $ $ $ $ g _ f ' ' ' ' ' ' ' ' ' ' ' ' _ ( ^ @ @ &                           ",
"                                & @ ~ / _ ' ' ' ' ' ' ' ' ' ' ' ' ' - e h $ $ $ $ h e - ' ' ' ' ' ' ' ' ' ' ' ' ' _ / ~ @ &                           ",
"                                & @ { ' ' ' ' ' ' ' ' ' ' ' ' ' ' ' - @ i $ $ $ $ i @ - ' ' ' ' ' ' ' ' ' ' ' ' ' ' ' { @ &                           ",
"                                & @ 5 ' ' ' ' ' ' ' ' ' ' ' ' ' ' ' - @ + i j j i + @ - ' ' ' ' ' ' ' ' ' ' ' ' ' ' ' 5 @ &                           ",
"                                & @ 5 ' ' ' ' ' ' ' ' ' ' ' ' ' ' ' - @ @ @ @ @ @ @ @ - ' ' ' ' ' ' ' ' ' ' ' ' ' ' ' 5 @ &                           ",
"                                k - 6 ' ' ' ' ' ' ' ' ' ' ' ' ' ' ' l - = @ @ @ @ = - l ' ' ' ' ' ' ' ' ' ' ' ' ' ' ' 6 - k                           ",
"                                m ' ' ' ' ' ' ' ' ' ' ' ' ' ' ' ' ' ' ' , @ @ @ @ , ' ' ' ' ' ' ' ' ' ' ' ' ' ' ' ' ' ' ' m                           ",
"                                m ' ' ' ' ' ' ] , 7 , ] ' ' ' ' ' ' ' ' ] { 5 5 { ] ' ' ' ' ' ' ' ' ] , 7 , ] ' ' ' ' ' ' m                           ",
"                                m ' ' ' ' ' ' { @ @ @ { ' ' ' ' ' ' ' ' ' ' ' ' ' ' ' ' ' ' ' ' ' ' { @ @ @ { ' ' ' ' ' ' m                           ",
"                                m ' ' ' ' _ / ~ @ @ @ ~ / _ _ / ' ' ' ' ' ' ' ' ' ' ' ' ' ' / _ _ / ~ @ @ @ ~ / _ ' ' ' ' m                           ",
"                                m ' ' ' _ ( ^ @ @ @ @ @ ^ e e ^ , ' ' ' ' ' ' ' ' ' ' ' ' , ^ e e ^ @ @ @ @ @ ^ ( _ ' ' ' m                           ",
"                                m ' ' ' / ^ @ @ @ @ @ @ @ @ @ @ 7 ' ' ' ' ' ' ' ' ' ' ' ' 7 @ @ @ @ @ @ @ @ @ @ ^ / ' ' ' m                           ",
"                                m ' ' ' _ e @ @ @ @ @ @ @ @ @ @ 4 5 6 ' ' ' ' ' ' ' ' 6 5 4 @ @ @ @ @ @ @ @ @ @ e _ ' ' ' m                           ",
"                                m ' ' ' _ e @ @ @ @ @ @ @ @ @ @ @ @ - ' ' ' ' ' ' ' ' - @ @ @ @ @ @ @ @ @ @ @ @ e _ ' ' ' m                           ",
"                            n m o ' ' ' / ^ @ @ @ @ @ p q q q q p @ r - 6 ' ' ' ' 6 - r @ p q q q q p @ @ @ @ @ ^ / ' ' ' o m n                       ",
"                            s ' ' ' ' ' _ e @ @ @ @ @ t u v w x t @ @ @ 5 ' ' ' ' 5 @ @ @ t x w v u t @ @ @ @ @ e _ ' ' ' ' ' s                       ",
"                            s ' ' ' ' ' _ e @ @ @ @ @ t u v w x t @ @ @ 5 ' ' ' ' 5 @ @ @ t x w v u t @ @ @ @ @ e _ ' ' ' ' ' s                       ",
"                            y ' ' ' ' ' / ^ @ @ @ @ @ z u u u u z @ @ @ { ' ' ' ' { @ @ @ z u u u u z @ @ @ @ @ ^ / ' ' ' ' ' y                       ",
"                            s ' ' ' ' ' _ e @ @ @ @ @ t u u u u t @ @ @ 5 ' ' ' ' 5 @ @ @ t u u u u t @ @ @ @ @ e _ ' ' ' ' ' s                       ",
"                            s ' ' ' ' ' _ e @ @ @ @ @ t u u u u t @ @ @ 5 ' ' ' ' 5 @ @ @ t u u u u t @ @ @ @ @ e _ ' ' ' ' ' s                       ",
"                            y ' ' ' ' ' / ^ @ @ @ @ @ z u u u u z @ @ @ { ' ' ' ' { @ @ @ z u u u u z @ @ @ @ @ ^ / ' ' ' ' ' y                       ",
"                            s ' ' ' ' ' ' , 7 4 @ @ @ A z t t z A @ = , ] ' ' ' ' ] , = @ A z t t z A @ @ @ 4 7 , ' ' ' ' ' ' s                       ",
"                            s ' ' ' ' ' ' ' ' 5 @ @ @ @ @ @ @ @ @ @ - ' ' ' ' ' ' ' ' - @ @ @ @ @ @ @ @ @ @ 5 ' ' ' ' ' ' ' ' s                       ",
"                            B - - - - - - - - C @ @ @ @ @ @ @ @ @ @ - ' ' ' ' ' ' ' ' - @ @ @ @ @ @ @ @ @ @ C - - - - - - - - B                       ",
"                            < @ @ @ @ @ @ @ @ @ @ @ @ @ @ @ @ @ @ @ - ' ' ' ' ' ' ' ' - @ @ @ @ @ @ @ @ @ @ @ @ @ @ @ @ @ @ @ <                       ",
"                        D 2 E @ @ @ @ @ @ @ @ @ @ @ @ @ @ @ @ @ F t G H H H H H H H H G t F @ @ @ @ @ @ @ @ @ @ @ @ @ @ @ @ @ E 2 D                   ",
"                      I * @ @ @ @ @ @ @ @ @ @ @ @ @ @ @ @ @ @ @ J u u K L L L L L L M u u J @ @ @ @ @ @ @ @ @ @ @ @ @ @ @ @ @ @ @ * I                 ",
"                    I N + @ @ @ @ @ @ @ @ @ @ @ @ @ @ @ @ @ e ^ O P Q R S T T T T U u Q P O ^ e @ @ @ @ @ @ @ @ @ @ @ @ @ @ @ @ @ + N I               ",
"                  D * + @ @ @ @ @ @ @ @ @ @ @ @ @ @ @ @ @ e V / W X Y u Z ` Z Z ` u u Y X W / V e @ @ @ @ @ @ @ @ @ @ @ @ @ @ @ @ @ + * D             ",
"                  2 @ @ @ @ @ @ @ @ @ @ @ @ @ @ @ @ @ @ @ ^ / ' ' ' Y u u u u u u u u Y ' ' ' / ^ @ @ @ @ @ @ @ @ @ @ @ @ @ @ @ @ @ @ @ 2             ",
"                  > @ @ @ @ @ @ @ @ @ @ @ @ @ @ @ @ @ @ @ e _ ' ' '  .H ..u u u u ..H  .' ' ' _ e @ @ @ @ @ @ @ @ @ @ @ @ @ @ @ @ @ @ @ >             ",
"                  > @ @ @ @ @ @ @ @ @ @ @ @ @ @ @ @ @ @ @ e _ ' ' ' ' ' H u u u u H ' ' ' ' ' _ e @ @ @ @ @ @ @ @ @ @ @ @ @ @ @ @ @ @ @ >             ",
"                  % & & & & | @ @ @ @ @ @ @ @ @ @ @ @ @ @ * - - c ' ' '  .Y Y Y Y  .' ' ' c - - * @ @ @ @ @ @ @ @ @ @ @ @ @ @ | & & & & %             ",
"                            < @ @ @ @ @ @ @ @ @ @ @ @ @ @ @ @ @ , ' ' ' ' ' ' ' ' ' ' ' ' , @ @ @ @ @ @ @ @ @ @ @ @ @ @ @ @ @ <                       ",
"                            +.< : < E @ @ @ @ @ @ @ @ @ @ @ @ @ @., c ' ' ' ' ' ' ' ' c , @.@ @ @ @ @ @ @ @ @ @ @ @ @ E < : < +.                      ",
"                                    2 @ @ @ @ @ @ @ @ @ @ @ @ @ @ @ - ' ' ' ' ' ' ' ' - @ @ @ @ @ @ @ @ @ @ @ @ @ @ @ 2                               ",
"                                    D * + @ @ @ @ @ @ @ @ @ @ @ @ @ - _ _ ' ' ' ' _ _ - @ @ @ @ @ @ @ @ @ @ @ @ @ + * D                               ",
"                                      I N + @ @ @ @ @ @ @ @ @ @ @ @ * e #.' ' ' ' #.e * @ @ @ @ @ @ @ @ @ @ @ @ + N I                                 ",
"                                        I * @ @ @ @ @ @ @ @ @ @ @ @ @ @ { ' ' ' ' { @ @ @ @ @ @ @ @ @ @ @ @ @ @ * I                                   ",
"                                          D 2 > > b @ @ @ @ @ @ @ @ @ @ e { 5 5 { e @ @ @ @ @ @ @ @ @ @ b > > 2 D                                     ",
"                                                  & @ @ @ @ @ @ @ @ @ @ @ @ @ @ @ @ @ @ @ @ @ @ @ @ @ @ &                                             ",
"                                                  a & & & & & & & & & & b @ @ @ @ b & & & & & & & & & & a                                             ",
"                                                                        > @ @ @ @ >                                                                   ",
"                                                                        $.: < < : $.                                                                  ",
"                                                                                                                                                      ",
"                                                                                                                                                      ",
"                                              %.&.*.&.&.*.&.&.*.&.&.*.&.&.*.&.&.*.&.&.*.&.&.*.&.&.*.&.&.*.&.%.                                        ",
"                                            =.-.;.;.;.;.;.;.;.;.;.;.;.;.;.;.;.;.;.;.;.;.;.;.;.;.;.;.;.;.;.;.-.=.                                      ",
"                                            >.;.;.;.;.;.;.;.;.;.;.;.;.;.;.;.;.;.;.;.;.;.;.;.;.;.;.;.;.;.;.;.;.>.                                      ",
"                                    ,.*.&.&.'.;.;.;.;.;.;.;.;.;.;.;.;.;.;.;.;.;.;.;.;.;.;.;.;.;.;.;.;.;.;.;.;.'.&.&.*.,.                              ",
"                                    *.;.;.;.;.;.;.;.;.;.;.;.;.;.;.;.;.;.;.;.;.;.;.;.;.;.;.;.;.;.;.;.;.;.;.;.;.;.;.;.;.*.                              ",
"                                    &.;.;.;.;.;.;.;.;.;.;.;.;.;.;.;.;.;.;.;.;.;.;.;.;.;.;.;.;.;.;.;.;.;.;.;.;.;.;.;.;.&.                              "};
