/* XPM */
static char * grsd_xpm[] = {
"75 75 319 2",
"  	c #5E7A3E",
". 	c #5E7941",
"+ 	c #5E7942",
"@ 	c #5E7A40",
"# 	c #556E40",
"$ 	c #4A5F3F",
"% 	c #4B5D42",
"& 	c #556D42",
"* 	c #59743C",
"= 	c #374930",
"- 	c #31432A",
"; 	c #374831",
"> 	c #59733F",
", 	c #5D793E",
"' 	c #3B4B37",
") 	c #35482D",
"! 	c #5D783F",
"~ 	c #5D7842",
"{ 	c #58733C",
"] 	c #58733B",
"^ 	c #5A743C",
"/ 	c #5E7940",
"( 	c #5D774A",
"_ 	c #33452B",
": 	c #32442B",
"< 	c #50663E",
"[ 	c #576E3F",
"} 	c #485741",
"| 	c #37482F",
"1 	c #556C40",
"2 	c #56654C",
"3 	c #3C5030",
"4 	c #546C3D",
"5 	c #374830",
"6 	c #3D4F36",
"7 	c #5B763E",
"8 	c #4A5B40",
"9 	c #32432B",
"0 	c #3B4F2E",
"a 	c #5C7640",
"b 	c #3F4B3D",
"c 	c #33442C",
"d 	c #59733C",
"e 	c #4D5E42",
"f 	c #3C502F",
"g 	c #57703E",
"h 	c #5D783E",
"i 	c #55654C",
"j 	c #597045",
"k 	c #5E7A3F",
"l 	c #5C6F51",
"m 	c #33452C",
"n 	c #3D4E34",
"o 	c #394937",
"p 	c #5B753F",
"q 	c #5B7543",
"r 	c #3B4E31",
"s 	c #32442C",
"t 	c #54634C",
"u 	c #495B3D",
"v 	c #4B5E42",
"w 	c #4B5F3F",
"x 	c #566D3E",
"y 	c #536741",
"z 	c #5D7746",
"A 	c #5D7749",
"B 	c #36472F",
"C 	c #3B4A37",
"D 	c #3D5132",
"E 	c #4A5F37",
"F 	c #33452D",
"G 	c #33442B",
"H 	c #546D3A",
"I 	c #445539",
"J 	c #3B4C34",
"K 	c #5D774B",
"L 	c #5D7450",
"M 	c #5A6D4D",
"N 	c #3D5032",
"O 	c #31432B",
"P 	c #33442E",
"Q 	c #415337",
"R 	c #3B4D32",
"S 	c #5D7745",
"T 	c #5B763D",
"U 	c #495B3C",
"V 	c #3B4A39",
"W 	c #45533E",
"X 	c #50673C",
"Y 	c #576C42",
"Z 	c #50673B",
"` 	c #5C773E",
" .	c #5E774A",
"..	c #5D7741",
"+.	c #5D7844",
"@.	c #435735",
"#.	c #354631",
"$.	c #3B4F2F",
"%.	c #5D7740",
"&.	c #43523D",
"*.	c #5C7544",
"=.	c #414C3E",
"-.	c #4E5E43",
";.	c #536940",
">.	c #35452F",
",.	c #4F6045",
"'.	c #5B7249",
").	c #4D6538",
"!.	c #4C6436",
"~.	c #4E6539",
"{.	c #5B733F",
"].	c #5E793E",
"^.	c #485843",
"/.	c #445637",
"(.	c #5D7940",
"_.	c #4F5E46",
":.	c #34462C",
"<.	c #475345",
"[.	c #5E7842",
"}.	c #5D7849",
"|.	c #46593A",
"1.	c #394933",
"2.	c #394C2F",
"3.	c #596D4E",
"4.	c #5C7747",
"5.	c #495B3E",
"6.	c #566F3C",
"7.	c #384837",
"8.	c #34472E",
"9.	c #587049",
"0.	c #4C5C41",
"a.	c #5C724F",
"b.	c #4C5F44",
"c.	c #3A4C30",
"d.	c #405333",
"e.	c #3A4939",
"f.	c #5D793F",
"g.	c #57694E",
"h.	c #394C30",
"i.	c #32432C",
"j.	c #4C6041",
"k.	c #425537",
"l.	c #5B773D",
"m.	c #4C5C44",
"n.	c #475343",
"o.	c #5B7343",
"p.	c #425438",
"q.	c #58703F",
"r.	c #5C7350",
"s.	c #394B32",
"t.	c #384932",
"u.	c #526A3A",
"v.	c #445836",
"w.	c #394938",
"x.	c #5B7348",
"y.	c #405531",
"z.	c #3E4A3C",
"A.	c #5A7242",
"B.	c #4C6336",
"C.	c #5A7143",
"D.	c #4B5C41",
"E.	c #485A3D",
"F.	c #5B7444",
"G.	c #576A4E",
"H.	c #5C783E",
"I.	c #485C37",
"J.	c #5D773E",
"K.	c #3C4F30",
"L.	c #415336",
"M.	c #3B4F30",
"N.	c #435537",
"O.	c #364631",
"P.	c #576C43",
"Q.	c #33442D",
"R.	c #405532",
"S.	c #3C4E33",
"T.	c #5D7747",
"U.	c #47573C",
"V.	c #384831",
"W.	c #5A7146",
"X.	c #5B7147",
"Y.	c #384832",
"Z.	c #32442D",
"`.	c #33462C",
" +	c #5C7641",
".+	c #3A4A32",
"++	c #5C7548",
"@+	c #3B4D31",
"#+	c #51673D",
"$+	c #33452E",
"%+	c #4A5B41",
"&+	c #3C4F32",
"*+	c #5E7945",
"=+	c #58723E",
"-+	c #4D6437",
";+	c #4E653A",
">+	c #5D7642",
",+	c #3F5232",
"'+	c #5C7642",
")+	c #3A4D30",
"!+	c #394A33",
"~+	c #48593D",
"{+	c #5A743D",
"]+	c #3A4C31",
"^+	c #31432C",
"/+	c #485642",
"(+	c #5D7841",
"_+	c #394A34",
":+	c #485C39",
"<+	c #586B4E",
"[+	c #445142",
"}+	c #58723D",
"|+	c #5D764A",
"1+	c #5C7448",
"2+	c #55644B",
"3+	c #546349",
"4+	c #4A5B3F",
"5+	c #405334",
"6+	c #35462E",
"7+	c #35472E",
"8+	c #5D7941",
"9+	c #465837",
"0+	c #3D512F",
"a+	c #4C5E3F",
"b+	c #364630",
"c+	c #41513B",
"d+	c #5B714A",
"e+	c #4B5B42",
"f+	c #5E7946",
"g+	c #546A40",
"h+	c #485F35",
"i+	c #4C623A",
"j+	c #465937",
"k+	c #34462E",
"l+	c #576B49",
"m+	c #5D7840",
"n+	c #5B7640",
"o+	c #57674D",
"p+	c #374832",
"q+	c #58723F",
"r+	c #415238",
"s+	c #475741",
"t+	c #587041",
"u+	c #4D613D",
"v+	c #3C4F2F",
"w+	c #3D5130",
"x+	c #58694E",
"y+	c #5E793F",
"z+	c #4F5F44",
"A+	c #5C763F",
"B+	c #485A3F",
"C+	c #415334",
"D+	c #526442",
"E+	c #536742",
"F+	c #34452F",
"G+	c #5C773D",
"H+	c #57684B",
"I+	c #3F4E3E",
"J+	c #394934",
"K+	c #576F3D",
"L+	c #34462D",
"M+	c #536843",
"N+	c #4D5C45",
"O+	c #5A753E",
"P+	c #3F5134",
"Q+	c #384933",
"R+	c #3D5033",
"S+	c #4E6241",
"T+	c #465938",
"U+	c #374833",
"V+	c #44533E",
"W+	c #57703C",
"X+	c #54624E",
"Y+	c #364731",
"Z+	c #596E45",
"`+	c #5C734F",
" @	c #556747",
".@	c #4D623B",
"+@	c #5C7740",
"@@	c #506344",
"#@	c #374A2F",
"$@	c #57703F",
"%@	c #59723E",
"&@	c #384B2E",
"*@	c #43503C",
"=@	c #526A3B",
"-@	c #546647",
";@	c #425436",
">@	c #4E6141",
",@	c #5C7741",
"'@	c #506047",
")@	c #596C4B",
"!@	c #556E3B",
"~@	c #425040",
"{@	c #364734",
"]@	c #465640",
"^@	c #445639",
"/@	c #34452D",
"(@	c #51683D",
"_@	c #566C42",
":@	c #354530",
"<@	c #4C6239",
"[@	c #495C3B",
"}@	c #4C5B45",
"|@	c #5E7944",
"1@	c #374731",
"2@	c #51683C",
"3@	c #58723B",
"4@	c #59733B",
"5@	c #526640",
"6@	c #5C773F",
"7@	c #40513A",
"8@	c #3A4E2F",
"9@	c #516441",
"0@	c #57713D",
"a@	c #3E4F37",
"b@	c #4F663B",
"c@	c #5C763E",
"d@	c #576F43",
"                                                                                                                                                      ",
"                                                                                                                                                      ",
"                                                                                                                                                      ",
"                                                                                                                                                      ",
"                                                                                                                                                      ",
"                                                                                                                                                      ",
"                                                                                                                                                      ",
"                                                                                                                                                      ",
"                                                                                                                                                      ",
"                                                                                                          . +                                         ",
"                                                                                                      @ # $ % & .                                     ",
"                                                                                                      * = - - ; >                                     ",
"                                                                                                    , ' - - - - ) !           ~ { ] ^ /               ",
"                                                                                                    ( _ - - - - : <         [ } : - | 1               ",
"                                                                                                    2 : - - - - - 3       4 5 - - - - 6 7             ",
"                                                                                                    8 9 - - - - - 0     a b - - - - - c d             ",
"                                                                                                    e 9 - - - - - f     g - - - - - - c {             ",
"                                                                                        h i j k     l m - - - - - 3   , n - - - - - - o p             ",
"                                                                                      q r s : t k   , ; - - - - - u   , _ - - - - - - v +             ",
"                                                                                    . w - - - : x     y 9 - - - m z   A _ - - - - - B 1               ",
"                                                                                    p C - - - - D     , E F G m H     ~ _ - - - - 9 I /               ",
"                                                                                    d : - - - - J K       L M (       , N O - - P Q h                 ",
"                                                                                    ] O - - - - R S                     T U V W X !       Y Z `       ",
"                                                                                    * c - - - - J  .                      / p ..      +.@.#.c $.h     ",
"                                                                                    %.&.- - - - $.                                  *.=.- - - : -.    ",
"                                                                                      ;.>.- - : ,.          '.).!.~.{.            ].^.- - - - - /.    ",
"                                                                                      (._.:._ <.[.      }.|.1.: - : 2.3.k         4.m - - - - 9 5.    ",
"                                                                                        ]., , ].    + 6.7.- - - - - - 8.9.        0.: - - - - c a.    ",
"                                                                                                  {.b.s - - - - - - - - c.{.      d.- - - - - e.,     ",
"                                        ]., ].                                                f.g.h.i.- - - - - - - - - 9 j..     k.- - - - m g       ",
"                                      l.m.B n.o.                                            T p.m - - - - - - - - - - - - c q.    r.s.O - t.u.        ",
"                                    ` v.O - - w.A                                         x.y.O - - - - - - - - - - - - - - z.].    A.B.!.C.          ",
"                h D.E.F.,         k G.: - - - - u                                       H.J - - - - - - - - - - - - - - - - - I.                      ",
"              J.K.: O m L.T       , 5 - - - - - M..                                     N.O - - - - - - - - - - - - - - - - - O.P.                    ",
"              X Q.- - - - R.T     , _ - - - - - S.T.                                  . K.- - - - - - - - - - - - - - - - - - - v.`                   ",
"              B.- - - - - - U.,   T._ - - - - - V.W.                                  X.Y.- - - - - - - - - - - - - - - - - - - Z.d                   ",
"              !.- - - - - - `. +  , _ - - - - - .+++                                  +.@+- - - - - - - - - - - - - - - - - - - - <.].                ",
"              #+$+- - - - - 9 %+  , _ - - - - - &+*+    =+-+;+>+                        ,+- - - - - - - - - - - - - - - - - - - - `.,                 ",
"              '+)+- - - - - - 3   , !+- - - - 9 ~+    {+]+^+s /+(+                      {+_+_ _ s : s s : 9 - - - - - - - - - - - _ ,                 ",
"                :+O - - - - - 0   k <+s - - - J h   ].[+- - - 9 }+                        , |+1+i 2+2 2 3+4+5+&+6+- - - - - - - - 7+,                 ",
"                8+9+- - - - - 0+    ` a+b+9 c+d+    A m - - - - e+                                            f+g+h+P - - - - - - i+                  ",
"                  %.j+9 - - k+l+      m+{+d n+k     o+: - - - - p+,                                               , q+r+_ 9 - : s+(+                  ",
"      , { t+* !     ].u+v+w+x+y+                    z+: - - - - B ,                                                   , A+B+C+D+].                    ",
"      E+s - F+U G+                                  H+s - - - - I+].                                                                                  ",
"    , J+- - - 9 L.,                                 (+_ - - - - K+                                                                                    ",
"    , L+- - - - m t+            ` d M+N+}+O+.       , P+- - - 6 7                                                                                     ",
"    , Q+- - - - - R+*+        l.v.s - - - t.S+`       T T+U+V+W+                                                                                      ",
"    k X+- - - - - Y+Z+      , L.- - - - - - s M.`+      ! O+..                                                                                        ",
"      {+; - - - - c X        @m - - - - - - - - k+.@+@                                                                                                ",
"      . @@$+- - - #@$@    %@&@- - - - - - - - - - O *@=@                                                                                              ",
"        ! -@L+: m ;@k   + m.O - - - - - - - - - - - - :.>@(+                                                                                          ",
"            ,@'@)@,     !@: - - - - - - - - - - - - - - : ~@a                                                                                         ",
"                      A {@- - - - - - - - - - - - - - - - O ]@f+                                                                                      ",
"                      ^@- - - - - - - - - - - - - - - - - - /@(@                                                                                      ",
"                    _@:@- - - - - - - - - - - - - - - - - - - <@k                                                                                     ",
"                  (.[@- - - - - - - - - - - - - - - - - - - - }@|@                                                                                    ",
"                  {+1@- - - - - - - - - - - - - - - - - - - - <@k                                                                                     ",
"                  ] - - - - - - - - - - - - - - - - - - - - $+2@                                                                                      ",
"                  3@- - - - - - - - - - - - - - - - - - s e.Z *+                                                                                      ",
"                  4@9 - - - - - - - : L+5@] 3@] 4@3@4@4@{ p                                                                                           ",
"                  6@7@- - - - - Z.8@9@,                                                                                                               ",
"                    0@a@O - 9 a@b@`                                                                                                                   ",
"                      c@=+d@4@A+                                                                                                                      ",
"                                                                                                                                                      ",
"                                                                                                                                                      ",
"                                                                                                                                                      ",
"                                                                                                                                                      ",
"                                                                                                                                                      ",
"                                                                                                                                                      ",
"                                                                                                                                                      ",
"                                                                                                                                                      ",
"                                                                                                                                                      ",
"                                                                                                                                                      ",
"                                                                                                                                                      ",
"                                                                                                                                                      "};
