/* XPM */
static char * shdd_xpm[] = {
"75 75 496 2",
"  	c #5E7A3E",
". 	c #6A763C",
"+ 	c #6D753C",
"@ 	c #6E743B",
"# 	c #995B31",
"$ 	c #A2522E",
"% 	c #A0542F",
"& 	c #9A4E2C",
"* 	c #66331D",
"= 	c #64321C",
"- 	c #61351D",
"; 	c #544122",
"> 	c #5C733B",
", 	c #78703A",
"' 	c #904828",
") 	c #512917",
"! 	c #5A6A36",
"~ 	c #552B18",
"{ 	c #512E19",
"] 	c #BC9463",
"^ 	c #C99F6B",
"/ 	c #C79E6A",
"( 	c #B88B56",
"_ 	c #C89F6B",
": 	c #C89F6A",
"< 	c #5A341F",
"[ 	c #795637",
"} 	c #CCA26D",
"| 	c #D7AC74",
"1 	c #CDA067",
"2 	c #C5965C",
"3 	c #D6AB73",
"4 	c #D5AA72",
"5 	c #C6975D",
"6 	c #C4945A",
"7 	c #CBA16C",
"8 	c #D3A86F",
"9 	c #CB9D64",
"0 	c #D5AA71",
"a 	c #D2A66E",
"b 	c #C7985E",
"c 	c #D7AB73",
"d 	c #BB9362",
"e 	c #BB8E58",
"f 	c #D4A870",
"g 	c #D3A76F",
"h 	c #CFA26A",
"i 	c #C99E69",
"j 	c #C99B62",
"k 	c #C8995F",
"l 	c #C6965C",
"m 	c #58311C",
"n 	c #704A2A",
"o 	c #D4A971",
"p 	c #D1A56C",
"q 	c #D2A66D",
"r 	c #57311B",
"s 	c #C5955B",
"t 	c #C99B61",
"u 	c #755132",
"v 	c #C89D68",
"w 	c #D1A46C",
"x 	c #CC9F66",
"y 	c #A67A47",
"z 	c #CBA26C",
"A 	c #F1D2AE",
"B 	c #F7DAB8",
"C 	c #F9DCB9",
"D 	c #F9DCBA",
"E 	c #F8DBB9",
"F 	c #F8DAB8",
"G 	c #F5D7B6",
"H 	c #F4D5B1",
"I 	c #B78851",
"J 	c #B7886A",
"K 	c #F8DCBC",
"L 	c #F2D5B6",
"M 	c #FFE4C4",
"N 	c #F5D8B9",
"O 	c #D5B194",
"P 	c #E7C7A9",
"Q 	c #6F4828",
"R 	c #D0A36B",
"S 	c #C4955A",
"T 	c #F7D9B7",
"U 	c #AA7556",
"V 	c #BB8E71",
"W 	c #CBA487",
"X 	c #CBA386",
"Y 	c #BF9072",
"Z 	c #D9B394",
"` 	c #F7DBBB",
" .	c #EBCDAE",
"..	c #B58669",
"+.	c #FDE1C1",
"@.	c #D4AE90",
"#.	c #A05D37",
"$.	c #9D5C36",
"%.	c #D5B193",
"&.	c #995A31",
"*.	c #D1A56D",
"=.	c #9E603D",
"-.	c #EFD1B2",
";.	c #EECBAB",
">.	c #B56E43",
",.	c #B67751",
"'.	c #FADEBE",
").	c #B38366",
"!.	c #BF9476",
"~.	c #D3A686",
"{.	c #F3D6B7",
"].	c #BD8F6D",
"^.	c #533F21",
"/.	c #91572F",
"(.	c #C39358",
"_.	c #F6D8B6",
":.	c #E1B997",
"<.	c #BE7C54",
"[.	c #A05E39",
"}.	c #805F47",
"|.	c #F5D8B7",
"1.	c #F3D6B5",
"2.	c #A58A70",
"3.	c #9C5F39",
"4.	c #BB7A52",
"5.	c #B97E58",
"6.	c #EBCBAB",
"7.	c #F2D3AF",
"8.	c #C6965D",
"9.	c #CE9A66",
"0.	c #BC7849",
"a.	c #A8653C",
"b.	c #64402A",
"c.	c #674B33",
"d.	c #D4A972",
"e.	c #D3A871",
"f.	c #8E6E4A",
"g.	c #603F2A",
"h.	c #9C5E38",
"i.	c #BD7949",
"j.	c #BF8650",
"k.	c #D6AA73",
"l.	c #C99A61",
"m.	c #C08852",
"n.	c #9D5F39",
"o.	c #68432B",
"p.	c #503626",
"q.	c #654B33",
"r.	c #D3A972",
"s.	c #503726",
"t.	c #613F29",
"u.	c #995D38",
"v.	c #B87243",
"w.	c #C68B5A",
"x.	c #D7AB74",
"y.	c #554D27",
"z.	c #5B4426",
"A.	c #BE844E",
"B.	c #A6623A",
"C.	c #70462D",
"D.	c #513726",
"E.	c #4F3626",
"F.	c #654A33",
"G.	c #66412B",
"H.	c #A1613A",
"I.	c #C18151",
"J.	c #594122",
"K.	c #80854B",
"L.	c #CA9661",
"M.	c #BB7948",
"N.	c #965835",
"O.	c #543827",
"P.	c #644932",
"Q.	c #8D5634",
"R.	c #BC7749",
"S.	c #CB9662",
"T.	c #D6AA72",
"U.	c #D0A269",
"V.	c #777E42",
"W.	c #7D844A",
"X.	c #C39459",
"Y.	c #CC9863",
"Z.	c #BB7647",
"`.	c #A7653C",
" +	c #6D452C",
".+	c #664B33",
"++	c #8F6F4A",
"@+	c #6B442C",
"#+	c #935835",
"$+	c #C8905D",
"%+	c #C6975C",
"&+	c #757D42",
"*+	c #C48756",
"=+	c #B96F41",
"-+	c #985C37",
";+	c #614730",
">+	c #C49C69",
",+	c #BA915D",
"'+	c #C49B67",
")+	c #C49D6A",
"!+	c #826443",
"~+	c #74492E",
"{+	c #B86F41",
"]+	c #BE7B4D",
"^+	c #C38755",
"/+	c #975B37",
"(+	c #4E3526",
"_+	c #37251D",
":+	c #261918",
"<+	c #231717",
"[+	c #38261E",
"}+	c #493224",
"|+	c #774A2F",
"1+	c #BE7B4C",
"2+	c #C6985D",
"3+	c #D2A26D",
"4+	c #C38151",
"5+	c #AF693E",
"6+	c #8E5735",
"7+	c #4A3425",
"8+	c #2B1D19",
"9+	c #241817",
"0+	c #4A3324",
"a+	c #6F462C",
"b+	c #BD784A",
"c+	c #C49159",
"d+	c #BF7C4C",
"e+	c #7F4F31",
"f+	c #533827",
"g+	c #4B3325",
"h+	c #4B3324",
"i+	c #73482E",
"j+	c #B56D40",
"k+	c #D5A871",
"l+	c #BD7B4C",
"m+	c #764A2E",
"n+	c #523827",
"o+	c #6A432C",
"p+	c #33211B",
"q+	c #6A432A",
"r+	c #5D3D29",
"s+	c #6C442C",
"t+	c #A8663C",
"u+	c #BD7B4B",
"v+	c #CFA36A",
"w+	c #7B5C3B",
"x+	c #A9673E",
"y+	c #885433",
"z+	c #5E3D29",
"A+	c #A9653C",
"B+	c #573422",
"C+	c #41271D",
"D+	c #A6643B",
"E+	c #523726",
"F+	c #71472D",
"G+	c #BB7849",
"H+	c #D4AA72",
"I+	c #BD9461",
"J+	c #553C25",
"K+	c #9E5E38",
"L+	c #7E4E31",
"M+	c #B06A3E",
"N+	c #B46C3F",
"O+	c #AF693F",
"P+	c #7B4C30",
"Q+	c #B27246",
"R+	c #C39967",
"S+	c #C59E6A",
"T+	c #221717",
"U+	c #613E28",
"V+	c #5A3B28",
"W+	c #563927",
"X+	c #543927",
"Y+	c #523727",
"Z+	c #784B2F",
"`+	c #B66D40",
" @	c #573A27",
".@	c #523826",
"+@	c #613E29",
"@@	c #2D1D19",
"#@	c #C79F6B",
"$@	c #241917",
"%@	c #814F31",
"&@	c #AB673D",
"*@	c #573A28",
"=@	c #6B452C",
"-@	c #563A27",
";@	c #885333",
">@	c #9B5E39",
",@	c #291B19",
"'@	c #AD683D",
")@	c #B06A3F",
"!@	c #A4633B",
"~@	c #975C37",
"{@	c #905835",
"]@	c #A4633A",
"^@	c #AF6A3E",
"/@	c #925936",
"(@	c #281B19",
"_@	c #4A3224",
":@	c #A06039",
"<@	c #B56D3F",
"[@	c #9D5F38",
"}@	c #895434",
"|@	c #B26B3F",
"1@	c #5B3C28",
"2@	c #806544",
"3@	c #5A4630",
"4@	c #402B20",
"5@	c #4D3525",
"6@	c #A26239",
"7@	c #9C5D36",
"8@	c #744D39",
"9@	c #996C57",
"0@	c #B36C40",
"a@	c #9B5E38",
"b@	c #5F3E29",
"c@	c #AF6A3D",
"d@	c #9B6E56",
"e@	c #836254",
"f@	c #995B34",
"g@	c #A9663C",
"h@	c #422D21",
"i@	c #5C4731",
"j@	c #634D35",
"k@	c #281B18",
"l@	c #493223",
"m@	c #A06139",
"n@	c #8F5430",
"o@	c #605E5F",
"p@	c #A6928B",
"q@	c #B56F43",
"r@	c #B16A3F",
"s@	c #65412B",
"t@	c #AD968D",
"u@	c #949594",
"v@	c #864F2C",
"w@	c #B86E41",
"x@	c #593B28",
"y@	c #2B1D1A",
"z@	c #675137",
"A@	c #9F6139",
"B@	c #915631",
"C@	c #1A0D06",
"D@	c #5E3720",
"E@	c #B16B3E",
"F@	c #B76E40",
"G@	c #744528",
"H@	c #1F130D",
"I@	c #87502D",
"J@	c #B86E40",
"K@	c #9E5E37",
"L@	c #6C3F22",
"M@	c #834D2B",
"N@	c #B26B3E",
"O@	c #9B5D38",
"P@	c #603E29",
"Q@	c #8D532F",
"R@	c #6D4023",
"S@	c #915936",
"T@	c #2B1C1A",
"U@	c #2F1E19",
"V@	c #6B442B",
"W@	c #77492F",
"X@	c #794B2F",
"Y@	c #B36C3F",
"Z@	c #593A28",
"`@	c #A0613A",
" #	c #AC673D",
".#	c #76492F",
"+#	c #71462D",
"@#	c #36221B",
"##	c #CD9F66",
"$#	c #673D27",
"%#	c #AA673C",
"&#	c #A16037",
"*#	c #473023",
"=#	c #443024",
"-#	c #4C3223",
";#	c #8C5431",
">#	c #B26A3E",
",#	c #B86F40",
"'#	c #B0693E",
")#	c #76462B",
"!#	c #6D5338",
"~#	c #7C8247",
"{#	c #B58851",
"]#	c #38291F",
"^#	c #533121",
"/#	c #A7643B",
"(#	c #A26139",
"_#	c #452716",
":#	c #322F2E",
"<#	c #454343",
"[#	c #444342",
"}#	c #2A2524",
"|#	c #321C0D",
"1#	c #985A35",
"2#	c #6C5338",
"3#	c #CAA16C",
"4#	c #B0844E",
"5#	c #3D251C",
"6#	c #A9663D",
"7#	c #19100B",
"8#	c #0D0B0A",
"9#	c #0A0A0A",
"0#	c #19100A",
"a#	c #432D1F",
"b#	c #553927",
"c#	c #945A37",
"d#	c #B36B3F",
"e#	c #704329",
"f#	c #AF824D",
"g#	c #39231B",
"h#	c #B46B3F",
"i#	c #432E20",
"j#	c #1D110A",
"k#	c #110904",
"l#	c #452F20",
"m#	c #4E3525",
"n#	c #6D4128",
"o#	c #C59D6A",
"p#	c #271918",
"q#	c #563322",
"r#	c #673D26",
"s#	c #5C3C29",
"t#	c #483122",
"u#	c #955A36",
"v#	c #B66E40",
"w#	c #543121",
"x#	c #3C241B",
"y#	c #291B18",
"z#	c #553322",
"A#	c #623A25",
"B#	c #965B37",
"C#	c #AC673C",
"D#	c #553221",
"E#	c #2E1D19",
"F#	c #291A18",
"G#	c #5A3623",
"H#	c #A6633A",
"I#	c #9A5D38",
"J#	c #9C5E39",
"K#	c #B46C40",
"L#	c #AE683D",
"M#	c #6E4128",
"N#	c #281A18",
"O#	c #5B763D",
"P#	c #455C38",
"Q#	c #445C37",
"R#	c #706E46",
"S#	c #251917",
"T#	c #5E3824",
"U#	c #6E4129",
"V#	c #985B36",
"W#	c #A5643B",
"X#	c #A2613A",
"Y#	c #9C5D38",
"Z#	c #6F4229",
"`#	c #643C26",
" $	c #2D1C19",
".$	c #56703C",
"+$	c #3E5436",
"@$	c #6C6945",
"#$	c #653C26",
"$$	c #8F5633",
"%$	c #925734",
"&$	c #8E5533",
"*$	c #915733",
"=$	c #975B36",
"-$	c #8F5533",
";$	c #905633",
">$	c #6C4028",
",$	c #231817",
"'$	c #706B46",
")$	c #3B241B",
"!$	c #854F2F",
"~$	c #915634",
"{$	c #37221B",
"]$	c #3F5636",
"^$	c #66633F",
"/$	c #5A753D",
"($	c #656542",
"_$	c #BB945F",
":$	c #D1A76F",
"<$	c #D4AA73",
"[$	c #BE9862",
"}$	c #5C5D3A",
"|$	c #59743D",
"1$	c #BE9762",
"2$	c #C6A16C",
"3$	c #6B6843",
"4$	c #6C6742",
"5$	c #656442",
"6$	c #3A4D32",
"7$	c #3A4E32",
"                                                                                                                                                      ",
"                                                                                                                                                      ",
"                                                                                                                                                      ",
"                                                                                                                                                      ",
"                                                                                                                                                      ",
"                                                                                                                                                      ",
"                                                          . + @ + + @ + + @ + + @ + + @ + .                                                           ",
"                                                          # $ $ $ $ $ $ $ $ $ $ $ $ $ $ $ #                                                           ",
"                                                      . # % & * = = * = = * = = * = = * = - ; >                                                       ",
"                                                    . , $ & ' ) ) ) ) ) ) ) ) ) ) ) ) ) ) ) ) ! >                                                     ",
"                                                    # $ $ * ) ) ) ) ) ) ) ) ) ) ) ) ) ) ) ) ) ) ;                                                     ",
"                                                . # % & * ~ ) ) ) ) ) ) ) ) ) ) ) ) ) ) ) ) ) ) { ; >                                                 ",
"                                              . , $ & ' ) ) ) ) ) ) ) ) ) ) ) ) ) ) ) ) ) ) ) ) ) ) ! >                                               ",
"                                              # $ $ * ) ) ) ) ) ) ) ) ) ) ) ) ) ) ) ) ) ) ) ) ) ) ) ) ;                                               ",
"                                          . # % & * ~ ) ) ) ) ) ] ^ / ( _ / : ^ / : ] ) ) ) ) ) ) ) ) { ; >                                           ",
"                                        . , $ & ' ) ) ) ) ) < [ } | 1 2 3 4 5 3 1 6 7 [ < ) ) ) ) ) ) ) ) ! >                                         ",
"                                        # $ $ * ) ) ) ) ) ) [ | | | 1 8 | 1 9 0 a b c | [ ) ) ) ) ) ) ) ) ) ;                                         ",
"                                    . # % & * ~ ) ) ) ) ) d e | | | 1 f | 1 g 5 h 5 3 h i ] ) ) ) ) ) ) ) ) { ; >                                     ",
"                                  . , $ & ' ) ) ) ) ) < [ 7 5 | | | 1 f | 1 g j 1 2 3 1 f } [ < ) ) ) ) ) ) ) ) ! >                                   ",
"                                  # $ $ * ) ) ) ) ) ) [ | c b | | | 1 8 | 1 9 0 k 8 | 1 8 | | [ ) ) ) ) ) ) ) ) ) ;                                   ",
"                              . # % & * ~ ) ) ) ) ) ] } | j f | | | 1 f | 4 2 l 9 3 | 1 f | | } ] ) ) ) ) ) ) ) ) { ; >                               ",
"                            . , $ & ' ) ) ) ) ) m n 7 | 4 2 3 | o | 1 f 3 4 3 3 1 p | h q | | | 7 n r ) ) ) ) ) ) ) ) ! >                             ",
"                            # $ $ * ) ) ) ) ) ) n 9 4 | 1 9 | | b c 1 8 4 1 4 | a s c | b c | | 8 t u ) ) ) ) ) ) ) ) ) ;                             ",
"                        . # % & * ~ ) ) ) ) ) ] v 1 | | 1 f | | b 3 1 f | 1 f | | 5 3 | 5 3 | | f 1 } ] ) ) ) ) ) ) ) ) { ; >                         ",
"                      . , $ & ' ) ) ) ) ) < [ } f 1 | | 1 f | 1 8 | 1 f | h o | | 5 3 | 5 3 | | f 1 | } [ < ) ) ) ) ) ) ) ) ! >                       ",
"                      # $ $ * ) ) ) ) ) ) [ | | 8 1 | | 1 9 | w x | 1 8 | | h h | b c | b c | | 8 1 | | | [ ) ) ) ) ) ) ) ) ) ;                       ",
"                  . # % & * ~ ) ) ) ) ) y z | j 3 4 | | 4 A B C B D B C D E B B F B D E G H | | f 1 | | | e d ) ) ) ) ) ) ) ) { ; >                   ",
"                . , $ & ' ) ) ) ) ) r u I 3 1 2 3 8 f | | B J K L L K M M M N M O P L K J B | | f 1 | | | 5 7 [ < ) ) ) ) ) ) ) ) ! >                 ",
"                # $ $ * ) ) ) ) ) ) Q R 5 h 1 g 1 1 S h | T U V W X Y Z `  ...+.@.#.$.%...T | | 8 1 | | | b c | [ ) ) ) ) ) ) ) ) ) ;                 ",
"                &.& * ~ ) ) ) ) ) ] v 1 f 5 1 g 5 h *.5 | D P =.-.;.>.,.'.K ).!.~.>.~.N {.].| 3 2 1 | | | 5 3 | } ] ) ) ) ) ) ) ) ) ^.                ",
"                /.' ) ) ) ) ) < [ } f 1 3 5 1 g (.S f 5 | H B _.:.<.[.}.|.E G 1.2.3.4.5.6.7.| 3 5 | | | | 5 3 | | 7 u < ) ) ) ) ) ) ^.                ",
"                ; ) ) ) ) ) ) [ | | 8 1 c b 1 g (.1 c b | c 8.9.0.a.b.c.d.| b e.f.g.h.i.j.k.| c b | | | | b c | | 8 1 [ ) ) ) ) ) ) ;                 ",
"                ^.) ) ) ) ) y z | 3 2 1 3 5 1 f f 4 l.5 | 3 m.0.n.o.p.q.d.| 5 r.f.s.t.u.v.w.x.3 5 | | | | 5 3 | | f 1 } ] ) ) ) ) ) ^.                ",
"                y.^.; ^.z.[ I 3 | 3 5 | 3 5 1 p | 4 2 3 | 3 A.B.C.D.E.F.d.1 2 r.f.E.s.G.H.I.3 3 5 | | | | j 3 | | f 1 | } u J.^.; ^.y.                ",
"                        K.| b c | c b | c b a S 1 k 9 | | L.M.N.O.E.E.P.d.1 8 r.f.E.E.E.Q.R.S.T.b | h h | | | | | 8 1 | | U.V.                        ",
"                        W.| 5 3 | 3 5 | 3 5 | f X.9 3 3 Y.Z.`. +D.E.E..+d.1 f d.++E.E.E.@+#+Z.$+%+| 5 f | j j | | f 1 | | U.&+                        ",
"                        W.| 5 3 | 3 5 | 3 5 | | 3 0 3 k.*+=+-+E.E.E.E.;+>+,+'+)+!+E.E.E.s.~+{+]+5 | 5 3 1 8 8 1 | f 1 | | U.&+                        ",
"                        K.| b c | c b | c b | | | 1 8 T.^+=+/+E.E.E.E.(+_+:+<+[+}+E.E.E.E.|+{+1+2+| b c 1 8 8 1 | 8 1 | | U.V.                        ",
"                        W.| 5 3 | 3 5 | 3 5 | | | 1 f 3+4+5+6+E.E.E.E.E.7+8+9+0+E.E.E.E.E.a+5+b+c+3 5 3 1 8 f S o f 1 | | U.&+                        ",
"                        W.| 5 3 | 3 5 | 3 5 | | | 1 g d+{+e+f+E.E.E.E.E.g+8+9+h+E.E.E.E.E.p.i+j+i.k+l.5 h 6 3 1 f f 1 | | U.&+                        ",
"                        K.| b c | h 5 | c b | | | 1 g l+5+m+p.E.E.E.E.n+o+p+:+q+r+E.E.E.E.E.s+t+u+k+c b | h | 1 8 4 a | | U.V.                        ",
"                        W.h q | | 5 f | 3 5 | | | v+w+x+y+f+E.E.E.E.E.z+A+B+C+D+e+E.E.E.E.E.E+F+G+k+3 6 h | | 1 f | h o | U.&+                        ",
"                        W.1 f | | 5 3 | 3 5 | | H+I+J+K+L+p.E.E.E.E.E.r+M+N+N+O+P+E.E.E.E.E.E.o.Q+R+H+8 9 3 | 1 f | 1 f | U.&+                        ",
"                        K.1 8 | | b c | c b | | S+T+:+U+V+E.f+W+X+E.E.Y+Z+M+`+m+ @E.E..@W+X+E.O.+@@@S+4 k 8 4 1 4 | 1 8 | U.V.                        ",
"                        W.1 f | | 5 3 | 3 5 | | #@T+$@}+E.X+%@&@Q.*@f+E.f+o.=@E+E.f+-@;@&@>@O.E.7+,@#@| 1 2 g 1 | | 1 f | U.&+                        ",
"                        W.1 f | | 5 3 | 3 5 | | #@T+9+}+Y+6+'@=+)@!@~@z+E.E.E.p.*@{@]@^@=+N+/@ @g+(@#@| | t X.h | f S o | U.&+                        ",
"                        K.1 8 | | b c | c b | | S+T+9+_@n+:@=+=+=+=+<@[@O.E.E.X+}@|@=+=+=+=+a.1@0+(@S+| | | h | | 8 1 | | U.V.                        ",
"                        W.1 f | | 5 3 | 3 5 | 2@3@:+4@5@Y+6@=+=+7@8@9@0@a@b@f+a@c@d@e@f@{+=+g@V+(+h@i@2@| | | | | f 1 | | U.&+                        ",
"                        W.1 f | | 5 3 | 3 5 | j@T+k@l@E.D.m@=+=+n@o@p@q@r@s@f+M+`+t@u@v@w@=+a.x@E.g+y@j@| | | | | f 1 | | U.&+                        ",
"                        K.1 8 | | b c | c b | z@T+(@l@E.D.A@=+=+B@C@D@N+)@G.f+E@F@G@H@I@J@=+a.1@E.g+y@z@| | h | | 8 1 | | U.V.                        ",
"                        W.1 f | | 5 3 | 3 5 | j@T+(@_@p.D.6+'@=+K@L@M@N@O@P@Y+n.|@Q@R@f@w@<@S@*@p.g+T@j@| 3 5 | | f 1 | | U.&+                        ",
"                        W.1 f 3 4 j 3 | 3 5 | j@T+U@V@W@X@|+~@=+{+J@w@Y@x@p.E.Z@`@w@J@{+=+ #Z+|+.#+#@#j@| 3 5 | | f 1 | 3 ##&+                        ",
"                        K.1 8 8 1 | | | c b | z@@@$#%#`+`+`+F@=+=+=+`+&#*#=#=#-#;#>#=+=+=+,#`+`+`+'#)#!#| c b | | 8 1 | 8 k ~#                        ",
"                        W.1 g 2 1 | | | 3 {#z@]#^#/#{+=+=+=+=+=+=+{+(#_#:#<#[#}#|#1#`+=+=+=+=+=+=+{+|@t.2#3#5 | | f 1 | f 1 W.                        ",
"                        W.1 g 5 | | f 8 3 4#T+5#Y@{+=+=+=+=+=+=+=+6#-@h+7#8#9#0#a#b#c#=+=+=+=+=+=+=+=+d#e#/ 5 | | f 1 | f 1 W.                        ",
"                        K.1 g b | c s k g f#T+g#N@h#w@=+=+=+=+=+=+6#1@E.i#j#k#l#m# @~@=+=+=+=+=+=+{+N+'#n#o#s a | 8 1 | 8 1 K.                        ",
"                        W.1 g 5 | j f 1 g 4#T+p#q#r# #`+w@=+=+=+=+F@a@s#(+l@t#E.f+u#0@=+=+=+=+=+v#M+n#w#x##@p 1 | f 1 | f 1 W.                        ",
"                        W.1 g 5 | 5 3 1 g 4#T+T+<+y#z#A#K@J@=+=+=+=+F@a.1@D.E.s#B#j+=+=+=+=+w@C#A#D#E#<+T+#@f 1 | f 1 | f 1 W.                        ",
"                        K.1 g b | h 0 k g f#T+T+T+T+T+F#G#H#{+=+=+=+=+w@I#z+f+J#K#=+=+=+=+w@L#M#N#T+T+T+T+S+8 1 | 8 1 | 8 1 K.                        ",
"                  O#P#Q#R#1 f q h | f 9 3 4#T+T+T+T+T+T+S#T#U#V#F@{+{+{+`+W#X#F@{+{+{+{+Y#Z#`# $T+T+T+T+T+#@f 1 | f S o f 1 R#Q#P#O#                  ",
"                O#.$+$+$@$1 f f 1 | f 1 3 4#T+T+T+T+T+T+T+9+p##$$$%$&$*$=$N+F@1#-$;$%$$$>$F#,$T+T+T+T+T+T+#@f 9 3 | 1 f f 1 @$+$+$.$O#                ",
"                P#+$+$+$'$1 8 8 k 0 9 1 c f#T+T+T+T+T+T+T+T+T+T+T+T+T+T+)$!$~${$T+T+T+T+T+T+T+T+T+T+T+T+T+S+4 k 8 | 1 8 8 1 '$+$+$+$P#                ",
"            O#P#]$+$+$+$@$1 f 3 9 l 2 4 | '+T+T+T+T+T+T+T+T+T+T+T+T+T+T+9+@@E#,$T+T+T+T+T+T+T+T+T+T+T+T+T+#@| 1 f | 1 f f S ^$+$+$+$]$P#O#            ",
"            /$+$+$+$+$+$($_$:$| | 3 3 4 | #@T+T+T+T+T+T+T+T+T+T+T+T+T+T+T+T+T+T+T+T+T+T+T+T+T+T+T+T+T+T+T+#@| 1 f f S o <$[$}$+$+$+$+$+$/$            ",
"            |$+$+$+$+$+$+$+$1$| | | 8 1 | S+T+T+T+T+T+T+T+T+T+T+T+T+T+T+T+T+T+T+T+T+T+T+T+T+T+T+T+T+T+T+T+S+| 1 8 8 1 | 2$+$+$+$+$+$+$+$|$            ",
"            /$+$+$+$+$+$+$+$}$@$'$@$3$4$@$5$6$7$7$6$7$7$6$7$7$6$7$7$6$7$7$6$7$7$6$7$7$6$7$7$6$7$7$6$7$7$6$5$@$4$3$3$4$@$($+$+$+$+$+$+$+$/$            ",
"            O#P#]$+$+$+$+$+$+$+$+$+$+$+$+$+$+$+$+$+$+$+$+$+$+$+$+$+$+$+$+$+$+$+$+$+$+$+$+$+$+$+$+$+$+$+$+$+$+$+$+$+$+$+$+$+$+$+$+$+$]$P#O#            ",
"                P#+$+$+$+$+$+$+$+$+$+$+$+$+$+$+$+$+$+$+$+$+$+$+$+$+$+$+$+$+$+$+$+$+$+$+$+$+$+$+$+$+$+$+$+$+$+$+$+$+$+$+$+$+$+$+$+$+$P#                ",
"                O#/$|$/$.$+$+$+$+$+$+$+$+$+$+$+$+$+$+$+$+$+$+$+$+$+$+$+$+$+$+$+$+$+$+$+$+$+$+$+$+$+$+$+$+$+$+$+$+$+$+$+$+$+$.$/$|$/$O#                ",
"                        O#P#Q#Q#P#Q#Q#P#Q#Q#P#Q#Q#P#Q#Q#P#Q#Q#P#Q#Q#P#Q#Q#P#Q#Q#P#Q#Q#P#Q#Q#P#Q#Q#P#Q#Q#P#Q#Q#P#Q#Q#P#Q#Q#P#O#                        ",
"                                                                                                                                                      ",
"                                                                                                                                                      ",
"                                                                                                                                                      ",
"                                                                                                                                                      ",
"                                                                                                                                                      "};
