/* XPM */
static char * shed_xpm[] = {
"75 75 185 2",
"  	c #5E7A3E",
". 	c #6A763C",
"+ 	c #6D753C",
"@ 	c #6E743B",
"# 	c #995B31",
"$ 	c #A2522E",
"% 	c #A0542F",
"& 	c #9A4E2C",
"* 	c #66331D",
"= 	c #64321C",
"- 	c #61351D",
"; 	c #544122",
"> 	c #5C733B",
", 	c #78703A",
"' 	c #904828",
") 	c #512917",
"! 	c #5A6A36",
"~ 	c #552B18",
"{ 	c #512E19",
"] 	c #BC9463",
"^ 	c #C99F6B",
"/ 	c #C79E6A",
"( 	c #B88B56",
"_ 	c #C89F6B",
": 	c #C89F6A",
"< 	c #5A341F",
"[ 	c #795637",
"} 	c #CCA26D",
"| 	c #D7AC74",
"1 	c #CDA067",
"2 	c #C5965C",
"3 	c #D6AB73",
"4 	c #D5AA72",
"5 	c #C6975D",
"6 	c #C4945A",
"7 	c #CBA16C",
"8 	c #D3A86F",
"9 	c #CB9D64",
"0 	c #D5AA71",
"a 	c #D2A66E",
"b 	c #C7985E",
"c 	c #D7AB73",
"d 	c #BB9362",
"e 	c #BB8E58",
"f 	c #D4A870",
"g 	c #D3A76F",
"h 	c #CFA26A",
"i 	c #C99E69",
"j 	c #C99B62",
"k 	c #C8995F",
"l 	c #C6965C",
"m 	c #58311C",
"n 	c #704A2A",
"o 	c #D4A971",
"p 	c #D1A56C",
"q 	c #D2A66D",
"r 	c #57311B",
"s 	c #C5955B",
"t 	c #C99B61",
"u 	c #755132",
"v 	c #C89D68",
"w 	c #D1A46C",
"x 	c #CC9F66",
"y 	c #A67A47",
"z 	c #CBA26C",
"A 	c #F1D2AE",
"B 	c #F7DAB8",
"C 	c #F9DCB9",
"D 	c #F9DCBA",
"E 	c #F8DBB9",
"F 	c #F8DAB8",
"G 	c #F5D7B6",
"H 	c #F4D5B1",
"I 	c #B78851",
"J 	c #B7886A",
"K 	c #F8DCBC",
"L 	c #F2D5B6",
"M 	c #FFE4C4",
"N 	c #F5D8B9",
"O 	c #D5B194",
"P 	c #E7C7A9",
"Q 	c #6F4828",
"R 	c #D0A36B",
"S 	c #C4955A",
"T 	c #F7D9B7",
"U 	c #AA7556",
"V 	c #BB8E71",
"W 	c #CBA487",
"X 	c #F7DBBB",
"Y 	c #EBCDAE",
"Z 	c #B58669",
"` 	c #FDE2C2",
" .	c #D5B193",
"..	c #9B5A35",
"+.	c #995A31",
"@.	c #D1A56D",
"#.	c #9E603D",
"$.	c #FDE1C1",
"%.	c #F1D3B4",
"&.	c #B38366",
"*.	c #C39A7D",
"=.	c #F3D6B7",
"-.	c #BD8F6D",
";.	c #533F21",
">.	c #91572F",
",.	c #C39358",
"'.	c #D5B08E",
").	c #ECCDAB",
"!.	c #F2D3AF",
"~.	c #C99A61",
"{.	c #554D27",
"].	c #5B4426",
"^.	c #594122",
"/.	c #80854B",
"(.	c #D0A269",
"_.	c #777E42",
":.	c #7D844A",
"<.	c #C39459",
"[.	c #757D42",
"}.	c #D2A66F",
"|.	c #BF925D",
"1.	c #CBA06B",
"2.	c #C79C67",
"3.	c #C99E6A",
"4.	c #70320C",
"5.	c #CDA26C",
"6.	c #8A5934",
"7.	c #885632",
"8.	c #83502D",
"9.	c #BA8B55",
"0.	c #BF9462",
"a.	c #D4A972",
"b.	c #CFA36A",
"c.	c #926238",
"d.	c #84502D",
"e.	c #95653B",
"f.	c #C29561",
"g.	c #7D461E",
"h.	c #996B42",
"i.	c #CD9F66",
"j.	c #7C8247",
"k.	c #B98950",
"l.	c #753B18",
"m.	c #B5854D",
"n.	c #74350F",
"o.	c #75360F",
"p.	c #753610",
"q.	c #CA9F6A",
"r.	c #B4844C",
"s.	c #874319",
"t.	c #8B461B",
"u.	c #844117",
"v.	c #8A451B",
"w.	c #B6854D",
"x.	c #884419",
"y.	c #B7854D",
"z.	c #CCA06A",
"A.	c #5B763D",
"B.	c #455C38",
"C.	c #445C37",
"D.	c #706E46",
"E.	c #B8864E",
"F.	c #CDA16B",
"G.	c #56703C",
"H.	c #3E5436",
"I.	c #6C6945",
"J.	c #706B46",
"K.	c #3F5636",
"L.	c #CA9D67",
"M.	c #66633F",
"N.	c #5A753D",
"O.	c #656542",
"P.	c #BB945F",
"Q.	c #D1A76F",
"R.	c #D4AA73",
"S.	c #BE9862",
"T.	c #5C5D3A",
"U.	c #59743D",
"V.	c #BE9762",
"W.	c #C6A16C",
"X.	c #6B6843",
"Y.	c #6C6742",
"Z.	c #676542",
"`.	c #535232",
" +	c #515233",
"                                                                                                                                                      ",
"                                                                                                                                                      ",
"                                                                                                                                                      ",
"                                                                                                                                                      ",
"                                                                                                                                                      ",
"                                                                                                                                                      ",
"                                                          . + @ + + @ + + @ + + @ + + @ + .                                                           ",
"                                                          # $ $ $ $ $ $ $ $ $ $ $ $ $ $ $ #                                                           ",
"                                                      . # % & * = = * = = * = = * = = * = - ; >                                                       ",
"                                                    . , $ & ' ) ) ) ) ) ) ) ) ) ) ) ) ) ) ) ) ! >                                                     ",
"                                                    # $ $ * ) ) ) ) ) ) ) ) ) ) ) ) ) ) ) ) ) ) ;                                                     ",
"                                                . # % & * ~ ) ) ) ) ) ) ) ) ) ) ) ) ) ) ) ) ) ) { ; >                                                 ",
"                                              . , $ & ' ) ) ) ) ) ) ) ) ) ) ) ) ) ) ) ) ) ) ) ) ) ) ! >                                               ",
"                                              # $ $ * ) ) ) ) ) ) ) ) ) ) ) ) ) ) ) ) ) ) ) ) ) ) ) ) ;                                               ",
"                                          . # % & * ~ ) ) ) ) ) ] ^ / ( _ / : ^ / : ] ) ) ) ) ) ) ) ) { ; >                                           ",
"                                        . , $ & ' ) ) ) ) ) < [ } | 1 2 3 4 5 3 1 6 7 [ < ) ) ) ) ) ) ) ) ! >                                         ",
"                                        # $ $ * ) ) ) ) ) ) [ | | | 1 8 | 1 9 0 a b c | [ ) ) ) ) ) ) ) ) ) ;                                         ",
"                                    . # % & * ~ ) ) ) ) ) d e | | | 1 f | 1 g 5 h 5 3 h i ] ) ) ) ) ) ) ) ) { ; >                                     ",
"                                  . , $ & ' ) ) ) ) ) < [ 7 5 | | | 1 f | 1 g j 1 2 3 1 f } [ < ) ) ) ) ) ) ) ) ! >                                   ",
"                                  # $ $ * ) ) ) ) ) ) [ | c b | | | 1 8 | 1 9 0 k 8 | 1 8 | | [ ) ) ) ) ) ) ) ) ) ;                                   ",
"                              . # % & * ~ ) ) ) ) ) ] } | j f | | | 1 f | 4 2 l 9 3 | 1 f | | } ] ) ) ) ) ) ) ) ) { ; >                               ",
"                            . , $ & ' ) ) ) ) ) m n 7 | 4 2 3 | o | 1 f 3 4 3 3 1 p | h q | | | 7 n r ) ) ) ) ) ) ) ) ! >                             ",
"                            # $ $ * ) ) ) ) ) ) n 9 4 | 1 9 | | b c 1 8 4 1 4 | a s c | b c | | 8 t u ) ) ) ) ) ) ) ) ) ;                             ",
"                        . # % & * ~ ) ) ) ) ) ] v 1 | | 1 f | | b 3 1 f | 1 f | | 5 3 | 5 3 | | f 1 } ] ) ) ) ) ) ) ) ) { ; >                         ",
"                      . , $ & ' ) ) ) ) ) < [ } f 1 | | 1 f | 1 8 | 1 f | h o | | 5 3 | 5 3 | | f 1 | } [ < ) ) ) ) ) ) ) ) ! >                       ",
"                      # $ $ * ) ) ) ) ) ) [ | | 8 1 | | 1 9 | w x | 1 8 | | h h | b c | b c | | 8 1 | | | [ ) ) ) ) ) ) ) ) ) ;                       ",
"                  . # % & * ~ ) ) ) ) ) y z | j 3 4 | | 4 A B C B D B C D E B B F B D E G H | | f 1 | | | e d ) ) ) ) ) ) ) ) { ; >                   ",
"                . , $ & ' ) ) ) ) ) r u I 3 1 2 3 8 f | | B J K L L K M M M N M O P L K J B | | f 1 | | | 5 7 [ < ) ) ) ) ) ) ) ) ! >                 ",
"                # $ $ * ) ) ) ) ) ) Q R 5 h 1 g 1 1 S h | T U V W W V O X Y Z `  ..... .Z T | | 8 1 | | | b c | [ ) ) ) ) ) ) ) ) ) ;                 ",
"                +.& * ~ ) ) ) ) ) ] v 1 f 5 1 g 5 h @.5 | D P #.L $.%.L $.K &.*.K L L X =.-.| 3 2 1 | | | 5 3 | } ] ) ) ) ) ) ) ) ) ;.                ",
"                >.' ) ) ) ) ) < [ } f 1 3 5 1 g ,.S f 5 | H B T D C B D D E G B C D D '.).!.| 3 5 | | | | 5 3 | | 7 u < ) ) ) ) ) ) ;.                ",
"                ; ) ) ) ) ) ) [ | | 8 1 c b 1 g ,.1 c b | c b | | 8 1 | | | b c w 0 | | b c | c b | | | | b c | | 8 1 [ ) ) ) ) ) ) ;                 ",
"                ;.) ) ) ) ) y z | 3 2 1 3 5 1 f f 4 ~.5 | 3 5 | | f 1 | | | 5 3 1 f | | 5 3 | 3 5 | | | | 5 3 | | f 1 } ] ) ) ) ) ) ;.                ",
"                {.;.; ;.].[ I 3 | 3 5 | 3 5 1 p | 4 2 3 | 3 5 | | f 1 | | 1 2 3 1 f | | 5 3 | 3 5 | | | | j 3 | | f 1 | } u ^.;.; ;.{.                ",
"                        /.| b c | c b | c b a S 1 k 9 | | h h | | 8 1 | | 1 8 | 1 8 | | b c | c b | h h | | | | | 8 1 | | (._.                        ",
"                        :.| 5 3 | 3 5 | 3 5 | f <.9 3 | | 5 3 | | f 1 | | 1 f | 1 f | | 5 3 | 3 5 | 5 f | j j | | f 1 | | (.[.                        ",
"                        :.| 5 3 | 3 5 | 3 5 | | 3 0 3 | | 5 3 | | }.|.1.1.|.2.1.|.}.| | ~.5 | 3 5 | 5 3 1 8 8 1 | f 1 | | (.[.                        ",
"                        /.| b c | c b | c b | | | 1 8 | | b c | | 3.4.4.4.4.4.4.4.3.| | c b | c b | b c 1 8 8 1 | 8 1 | | (._.                        ",
"                        :.| 5 3 | 3 5 | 3 5 | | | 1 f | | 5 5.6.7.8.4.4.4.4.4.4.4.8.7.6.5.5 | 3 5 | 5 3 1 8 f S o f 1 | | (.[.                        ",
"                        :.| 5 3 | 3 5 | 3 5 | | | 1 f 4 3.9.0.4.4.4.4.4.4.4.4.4.4.4.4.4.0.9.3.a.5 | ~.5 h 6 3 1 f f 1 | | (.[.                        ",
"                        /.| b c | h 5 | c b | | | 1 8 3.4.4.4.4.4.4.4.4.4.4.4.4.4.4.4.4.4.4.4.i b | c b | h | 1 8 4 a | | (._.                        ",
"                        :.h q | | 5 f | 3 5 | | | b.c.8.4.4.4.4.4.4.4.4.4.4.4.4.4.4.4.4.4.4.4.d.e.| 3 6 h | | 1 f | h o | (.[.                        ",
"                        :.1 f | | 5 3 | 3 5 | | 4 f.g.4.4.4.4.4.4.4.4.4.4.4.4.4.4.4.4.4.4.4.4.4.8.3.4 8 9 3 | 1 f | 1 f | (.[.                        ",
"                        /.1 8 | | b c | c b | | 3.4.4.4.4.4.4.4.4.4.4.4.4.4.4.4.4.4.4.4.4.4.4.4.4.4.3.4 k 8 4 1 4 | 1 8 | (._.                        ",
"                        :.1 f | | 5 3 | 3 5 | | 1.4.4.4.4.4.4.4.4.4.4.4.4.4.4.4.4.4.4.4.4.4.4.4.4.4.1.| 1 2 g 1 | | 1 f | (.[.                        ",
"                        :.1 f | | 5 3 | 3 5 | | 1.4.4.4.4.4.4.4.4.4.4.4.4.4.4.4.4.4.4.4.4.4.4.4.4.4.1.| | t <.h | f S o | (.[.                        ",
"                        /.1 8 | | b c | c b | | 3.4.4.4.4.4.4.4.4.4.4.4.4.4.4.4.4.4.4.4.4.4.4.4.4.4.3.| | | h | | 8 1 | | (._.                        ",
"                        :.1 f | | 5 3 | 3 5 | h.8.4.4.4.4.4.4.4.4.4.4.4.4.4.4.4.4.4.4.4.4.4.4.4.4.4.8.h.| | | | | f 1 | | (.[.                        ",
"                        :.1 f | | 5 3 | 3 5 | 7.4.4.4.4.4.4.4.4.4.4.4.4.4.4.4.4.4.4.4.4.4.4.4.4.4.4.4.7.| | | | | f 1 | | (.[.                        ",
"                        /.1 8 | | b c | c b | 6.4.4.4.4.4.4.4.4.4.4.4.4.4.4.4.4.4.4.4.4.4.4.4.4.4.4.4.6.| | h | | 8 1 | | (._.                        ",
"                        :.1 f | | 5 3 | 3 5 | 7.4.4.4.4.4.4.4.4.4.4.4.4.4.4.4.4.4.4.4.4.4.4.4.4.4.4.4.7.| 3 5 | | f 1 | | (.[.                        ",
"                        :.1 f 3 4 j 3 | 3 5 | 7.4.4.4.4.4.4.4.4.4.4.4.4.4.4.4.4.4.4.4.4.4.4.4.4.4.4.4.7.| 3 5 | | f 1 | 3 i.[.                        ",
"                        /.1 8 8 1 | | | c b | 6.4.4.4.4.4.4.4.4.4.4.4.4.4.4.4.4.4.4.4.4.4.4.4.4.4.4.4.6.| c b | | 8 1 | 8 k j.                        ",
"                        :.1 g 2 1 | | | 3 k.6.l.4.4.4.4.4.4.4.4.4.4.4.4.4.4.4.4.4.4.4.4.4.4.4.4.4.4.4.l.6.5.5 | | f 1 | f 1 :.                        ",
"                        :.1 g 5 | | f 8 3 m.4.4.4.4.n.o.p.o.o.p.o.o.p.o.o.p.o.o.p.o.o.p.o.o.p.o.n.4.4.4.4.q.5 | | f 1 | f 1 :.                        ",
"                        /.1 g b | c s k g r.4.4.4.4.s.t.t.t.t.t.t.t.t.t.t.t.t.t.t.t.t.t.t.t.t.t.s.4.4.4.4.i s a | 8 1 | 8 1 /.                        ",
"                        :.1 g 5 | j f 1 g m.4.u.s.s.v.t.t.t.t.t.t.t.t.t.t.t.t.t.t.t.t.t.t.t.t.t.v.s.s.u.4.1.p 1 | f 1 | f 1 :.                        ",
"                        :.1 g 5 | 5 3 1 g w.p.x.t.t.t.t.t.t.t.t.t.t.t.t.t.t.t.t.t.t.t.t.t.t.t.t.t.t.t.x.p.1.f 1 | f 1 | f 1 :.                        ",
"                        /.1 g b | h 0 k g y.t.t.t.t.t.t.t.t.t.t.t.t.t.t.t.t.t.t.t.t.t.t.t.t.t.t.t.t.t.t.t.z.8 1 | 8 1 | 8 1 /.                        ",
"                  A.B.C.D.1 f q h | f 9 3 E.t.t.t.t.t.t.t.t.t.t.t.t.t.t.t.t.t.t.t.t.t.t.t.t.t.t.t.t.t.t.t.F.f 1 | f S o f 1 D.C.B.A.                  ",
"                A.G.H.H.I.1 f f 1 | f 1 3 E.t.t.t.t.t.t.t.t.t.t.t.t.t.t.t.t.t.t.t.t.t.t.t.t.t.t.t.t.t.t.t.F.f 9 3 | 1 f f 1 I.H.H.G.A.                ",
"                B.H.H.H.J.1 8 8 k 0 9 1 c y.t.t.t.t.t.t.t.t.t.t.t.t.t.t.t.t.t.t.t.t.t.t.t.t.t.t.t.t.t.t.t.z.4 k 8 | 1 8 8 1 J.H.H.H.B.                ",
"            A.B.K.H.H.H.I.1 f 3 9 l 2 4 | L.t.t.t.t.t.t.t.t.t.t.t.t.t.t.t.t.t.t.t.t.t.t.t.t.t.t.t.t.t.t.t.F.| 1 f | 1 f f S M.H.H.H.K.B.A.            ",
"            N.H.H.H.H.H.O.P.Q.| | 3 3 4 | F.t.t.t.t.t.t.t.t.t.t.t.t.t.t.t.t.t.t.t.t.t.t.t.t.t.t.t.t.t.t.t.F.| 1 f f S o R.S.T.H.H.H.H.H.N.            ",
"            U.H.H.H.H.H.H.H.V.| | | 8 1 | z.t.t.t.t.t.t.t.t.t.t.t.t.t.t.t.t.t.t.t.t.t.t.t.t.t.t.t.t.t.t.t.z.| 1 8 8 1 | W.H.H.H.H.H.H.H.U.            ",
"            N.H.H.H.H.H.H.H.T.I.J.I.X.Y.I.Z.`. + +`. + +`. + +`. + +`. + +`. + +`. + +`. + +`. + +`. + +`.Z.I.Y.X.X.Y.I.O.H.H.H.H.H.H.H.N.            ",
"            A.B.K.H.H.H.H.H.H.H.H.H.H.H.H.H.H.H.H.H.H.H.H.H.H.H.H.H.H.H.H.H.H.H.H.H.H.H.H.H.H.H.H.H.H.H.H.H.H.H.H.H.H.H.H.H.H.H.H.H.K.B.A.            ",
"                B.H.H.H.H.H.H.H.H.H.H.H.H.H.H.H.H.H.H.H.H.H.H.H.H.H.H.H.H.H.H.H.H.H.H.H.H.H.H.H.H.H.H.H.H.H.H.H.H.H.H.H.H.H.H.H.H.H.B.                ",
"                A.N.U.N.G.H.H.H.H.H.H.H.H.H.H.H.H.H.H.H.H.H.H.H.H.H.H.H.H.H.H.H.H.H.H.H.H.H.H.H.H.H.H.H.H.H.H.H.H.H.H.H.H.H.G.N.U.N.A.                ",
"                        A.B.C.C.B.C.C.B.C.C.B.C.C.B.C.C.B.C.C.B.C.C.B.C.C.B.C.C.B.C.C.B.C.C.B.C.C.B.C.C.B.C.C.B.C.C.B.C.C.B.A.                        ",
"                                                                                                                                                      ",
"                                                                                                                                                      ",
"                                                                                                                                                      ",
"                                                                                                                                                      ",
"                                                                                                                                                      "};
